<svg width="24" height="24" viewBox="0 0 24 24" fill="none" xmlns="http://www.w3.org/2000/svg">
<path opacity="0.3" fill-rule="evenodd" clip-rule="evenodd" d="M9.87872 12.7071L7.75739 14.8285C7.36687 15.219 7.36687 15.8522 7.75739 16.2427C8.14792 16.6332 8.78108 16.6332 9.17161 16.2427L11.2929 14.1214L12 14.8285C12.7811 15.6095 12.7811 16.8758 12 17.6569L9.17161 20.4853C8.39056 21.2664 7.12423 21.2664 6.34318 20.4853L3.51475 17.6569C2.73371 16.8758 2.73371 15.6095 3.51475 14.8285L6.34318 12C7.12423 11.219 8.39056 11.219 9.17161 12L9.87872 12.7071Z" fill="#4A4B68"/>
<path fill-rule="evenodd" clip-rule="evenodd" d="M14.1213 11.2929L16.2426 9.17154C16.6331 8.78101 16.6331 8.14785 16.2426 7.75732C15.8521 7.3668 15.2189 7.3668 14.8284 7.75732L12.7071 9.87864L12 9.17154C11.2189 8.39049 11.2189 7.12416 12 6.34311L14.8284 3.51468C15.6094 2.73364 16.8758 2.73364 17.6568 3.51468L20.4852 6.34311C21.2663 7.12416 21.2663 8.39049 20.4852 9.17154L17.6568 12C16.8758 12.781 15.6094 12.781 14.8284 12L14.1213 11.2929Z" fill="#4A4B68"/>
<path opacity="0.3" fill-rule="evenodd" clip-rule="evenodd" d="M4.22181 5.63604C3.83129 5.24552 3.83129 4.61235 4.22181 4.22183C4.61234 3.8313 5.2455 3.8313 5.63602 4.22183L7.05024 5.63604C7.44076 6.02657 7.44076 6.65973 7.05024 7.05025C6.65971 7.44078 6.02655 7.44078 5.63602 7.05025L4.22181 5.63604ZM8.34311 2.51473C8.34311 1.96245 8.79082 1.51473 9.34311 1.51473C9.89539 1.51473 10.3431 1.96245 10.3431 2.51473L10.3431 4.51473C10.3431 5.06702 9.89539 5.51473 9.34311 5.51473C8.79082 5.51473 8.34311 5.06702 8.34311 4.51473L8.34311 2.51473ZM1.6863 9.17159C1.6863 8.6193 2.13402 8.17159 2.6863 8.17159L4.6863 8.17159C5.23858 8.17159 5.6863 8.6193 5.6863 9.17159C5.6863 9.72387 5.23858 10.1716 4.6863 10.1716L2.6863 10.1716C2.13402 10.1716 1.6863 9.72387 1.6863 9.17159Z" fill="#4A4B68"/>
<path opacity="0.3" fill-rule="evenodd" clip-rule="evenodd" d="M18.2425 19.6569C18.633 20.0474 19.2662 20.0474 19.6567 19.6569C20.0472 19.2664 20.0472 18.6332 19.6567 18.2427L18.2425 16.8285C17.8519 16.438 17.2188 16.438 16.8283 16.8285C16.4377 17.219 16.4377 17.8522 16.8283 18.2427L18.2425 19.6569ZM21.3639 15.5356C21.9162 15.5356 22.3639 15.0879 22.3639 14.5356C22.3639 13.9833 21.9162 13.5356 21.3639 13.5356H19.3639C18.8116 13.5356 18.3639 13.9833 18.3639 14.5356C18.3639 15.0879 18.8116 15.5356 19.3639 15.5356L21.3639 15.5356ZM14.7071 22.1924C15.2594 22.1924 15.7071 21.7447 15.7071 21.1924L15.7071 19.1924C15.7071 18.6401 15.2594 18.1924 14.7071 18.1924C14.1548 18.1924 13.7071 18.6401 13.7071 19.1924L13.7071 21.1924C13.7071 21.7447 14.1548 22.1924 14.7071 22.1924Z" fill="#4A4B68"/>
</svg>
