<svg width="20" height="20" viewBox="0 0 20 20" fill="none" xmlns="http://www.w3.org/2000/svg">
<path fill-rule="evenodd" clip-rule="evenodd" d="M4.33334 2.5C3.78106 2.5 3.33334 2.94772 3.33334 3.5V16.5C3.33334 17.0523 3.78106 17.5 4.33334 17.5H4.83334C5.38563 17.5 5.83334 17.0523 5.83334 16.5V3.5C5.83334 2.94772 5.38563 2.5 4.83334 2.5H4.33334ZM8.50001 2.5C7.94772 2.5 7.50001 2.94772 7.50001 3.5V16.5C7.50001 17.0523 7.94772 17.5 8.50001 17.5H9.00001C9.55229 17.5 10 17.0523 10 16.5V3.5C10 2.94772 9.55229 2.5 9.00001 2.5H8.50001Z" fill="#8950FC"/>
<rect opacity="0.3" x="11.231" y="3.27014" width="2.5" height="15" rx="1" transform="rotate(-19 11.231 3.27014)" fill="#8950FC"/>
</svg>
