<svg width="17" height="17" viewBox="0 0 17 17" fill="none" xmlns="http://www.w3.org/2000/svg">
<path d="M16.9844 0.00915527H0V16.9936H16.9844V0.00915527Z" fill="#F5F5F5"/>
<path d="M15.6938 0.00915527H1.30621C0.58481 0.00915527 0 0.593966 0 1.31537H17C17 0.593966 16.4152 0.00915527 15.6938 0.00915527Z" fill="#FF4B55"/>
<path d="M17 5.23381H0V6.54003H17V5.23381Z" fill="#FF4B55"/>
<path d="M17 2.62085H0V3.92706H17V2.62085Z" fill="#FF4B55"/>
<path d="M17 7.84658H0V9.15279H17V7.84658Z" fill="#FF4B55"/>
<path d="M17 13.0723H0V14.3785H17V13.0723Z" fill="#FF4B55"/>
<path d="M17 15.6855H0C0 16.4069 0.584812 16.9917 1.30621 16.9917H15.6938C16.4152 16.9917 17 16.4069 17 15.6855Z" fill="#FF4B55"/>
<path d="M17 10.4597H0V11.7659H17V10.4597Z" fill="#FF4B55"/>
<path d="M9.14547 0.00915527H1C0.447715 0.00915527 0 0.456869 0 1.00915V9.15462H9.14547V0.00915527Z" fill="#41479B"/>
<path d="M1.16936 0.691052L1.23982 0.902357L1.46255 0.904083C1.49137 0.904316 1.50335 0.941105 1.48015 0.958237L1.30098 1.09055L1.36815 1.30292C1.37685 1.33041 1.34557 1.35316 1.32207 1.33639L1.14084 1.20686L0.95962 1.33639C0.936179 1.35319 0.904869 1.33041 0.913535 1.30292L0.980704 1.09055L0.80154 0.958237C0.778365 0.941105 0.790285 0.904316 0.819138 0.904083L1.04186 0.902357L1.11232 0.691052C1.12155 0.663692 1.16027 0.663692 1.16936 0.691052Z" fill="#F5F5F5"/>
<path d="M1.16936 2.4537L1.23982 2.66501L1.46255 2.66673C1.49137 2.66697 1.50335 2.70375 1.48015 2.72089L1.30098 2.8532L1.36815 3.06557C1.37685 3.09306 1.34557 3.1158 1.32207 3.09904L1.14084 2.96951L0.95962 3.09904C0.936179 3.11584 0.904869 3.09306 0.913535 3.06557L0.980704 2.8532L0.80154 2.72089C0.778365 2.70375 0.790285 2.66697 0.819138 2.66673L1.04186 2.66501L1.11232 2.4537C1.12155 2.42631 1.16027 2.42631 1.16936 2.4537Z" fill="#F5F5F5"/>
<path d="M1.16936 4.40864L1.23982 4.61995L1.46255 4.62167C1.49137 4.62191 1.50335 4.6587 1.48015 4.67586L1.30098 4.80818L1.36815 5.02054C1.37685 5.04804 1.34557 5.07078 1.32207 5.05401L1.14084 4.92449L0.95962 5.05401C0.936179 5.07081 0.904869 5.04804 0.913535 5.02054L0.980704 4.80818L0.80154 4.67586C0.778365 4.65873 0.790285 4.62191 0.819138 4.62167L1.04186 4.61995L1.11232 4.40864C1.12155 4.38128 1.16027 4.38128 1.16936 4.40864Z" fill="#F5F5F5"/>
<path d="M1.16936 6.20482L1.23982 6.41612L1.46255 6.41785C1.49137 6.41808 1.50335 6.45487 1.48015 6.472L1.30098 6.60432L1.36815 6.81669C1.37685 6.84418 1.34557 6.86692 1.32207 6.85015L1.14084 6.72063L0.95962 6.85015C0.936179 6.86696 0.904869 6.84418 0.913535 6.81669L0.980704 6.60432L0.80154 6.472C0.778365 6.45487 0.790285 6.41808 0.819138 6.41785L1.04186 6.41612L1.11232 6.20482C1.12155 6.17746 1.16027 6.17746 1.16936 6.20482Z" fill="#F5F5F5"/>
<path d="M1.16936 7.83931L1.23982 8.05061L1.46255 8.05234C1.49137 8.05257 1.50335 8.08936 1.48015 8.10649L1.30098 8.23881L1.36815 8.45117C1.37685 8.47867 1.34557 8.50141 1.32207 8.48464L1.14084 8.35512L0.95962 8.48464C0.936179 8.50144 0.904869 8.47867 0.913535 8.45117L0.980704 8.23881L0.80154 8.10649C0.778365 8.08936 0.790285 8.05254 0.819138 8.05234L1.04186 8.05061L1.11232 7.83931C1.12155 7.81195 1.16027 7.81195 1.16936 7.83931Z" fill="#F5F5F5"/>
<path d="M2.02727 1.52573L2.09773 1.73704L2.32046 1.73877C2.34928 1.739 2.36127 1.77579 2.33806 1.79292L2.15889 1.92523L2.22606 2.1376C2.23476 2.16509 2.20348 2.18784 2.17998 2.17107L1.99875 2.04155L1.81753 2.17107C1.79409 2.18787 1.76278 2.16509 1.77144 2.1376L1.83861 1.92523L1.65945 1.79292C1.63627 1.77579 1.64819 1.739 1.67705 1.73877L1.89977 1.73704L1.97023 1.52573C1.97946 1.49837 2.01818 1.49837 2.02727 1.52573Z" fill="#F5F5F5"/>
<path d="M2.02727 3.48072L2.09773 3.69202L2.32046 3.69375C2.34928 3.69398 2.36127 3.73077 2.33806 3.7479L2.15889 3.88022L2.22606 4.09258C2.23476 4.12008 2.20348 4.14282 2.17998 4.12605L1.99875 3.99653L1.81753 4.12605C1.79409 4.14285 1.76278 4.12008 1.77144 4.09258L1.83861 3.88022L1.65945 3.7479C1.63627 3.73077 1.64819 3.69398 1.67705 3.69375L1.89977 3.69202L1.97023 3.48072C1.97946 3.45336 2.01818 3.45336 2.02727 3.48072Z" fill="#F5F5F5"/>
<path d="M2.02727 5.33802L2.09773 5.54933L2.32046 5.55105C2.34928 5.55128 2.36127 5.58807 2.33806 5.60521L2.15889 5.73752L2.22606 5.94989C2.23476 5.97738 2.20348 6.00012 2.17998 5.98336L1.99875 5.85383L1.81753 5.98336C1.79409 6.00016 1.76278 5.97738 1.77144 5.94989L1.83861 5.73752L1.65945 5.60521C1.63627 5.58807 1.64819 5.55128 1.67705 5.55105L1.89977 5.54933L1.97023 5.33802C1.97946 5.31069 2.01818 5.31069 2.02727 5.33802Z" fill="#F5F5F5"/>
<path d="M2.02727 7.00607L2.09773 7.21738L2.32046 7.2191C2.34928 7.21934 2.36127 7.25612 2.33806 7.27326L2.15889 7.40557L2.22606 7.61794C2.23476 7.64543 2.20348 7.66818 2.17998 7.65141L1.99875 7.52188L1.81753 7.65141C1.79409 7.66821 1.76278 7.64543 1.77144 7.61794L1.83861 7.40557L1.65945 7.27326C1.63627 7.25612 1.64819 7.21934 1.67705 7.2191L1.89977 7.21738L1.97023 7.00607C1.97946 6.97868 2.01818 6.97868 2.02727 7.00607Z" fill="#F5F5F5"/>
<path d="M2.88519 0.691052L2.95564 0.902357L3.17837 0.904083C3.20719 0.904316 3.21918 0.941105 3.19597 0.958237L3.0168 1.09055L3.08397 1.30292C3.09267 1.33041 3.06139 1.35316 3.03789 1.33639L2.85666 1.20686L2.67544 1.33639C2.652 1.35319 2.62069 1.33041 2.62936 1.30292L2.69653 1.09055L2.51736 0.958237C2.49418 0.941105 2.5061 0.904316 2.53496 0.904083L2.75769 0.902357L2.82814 0.691052C2.83737 0.663692 2.87605 0.663692 2.88519 0.691052Z" fill="#F5F5F5"/>
<path d="M2.88519 2.4537L2.95564 2.66501L3.17837 2.66673C3.20719 2.66697 3.21918 2.70375 3.19597 2.72089L3.0168 2.8532L3.08397 3.06557C3.09267 3.09306 3.06139 3.1158 3.03789 3.09904L2.85666 2.96951L2.67544 3.09904C2.652 3.11584 2.62069 3.09306 2.62936 3.06557L2.69653 2.8532L2.51736 2.72089C2.49418 2.70375 2.5061 2.66697 2.53496 2.66673L2.75769 2.66501L2.82814 2.4537C2.83737 2.42631 2.87605 2.42631 2.88519 2.4537Z" fill="#F5F5F5"/>
<path d="M2.88519 4.40864L2.95564 4.61995L3.17837 4.62167C3.20719 4.62191 3.21918 4.6587 3.19597 4.67586L3.0168 4.80818L3.08397 5.02054C3.09267 5.04804 3.06139 5.07078 3.03789 5.05401L2.85666 4.92449L2.67544 5.05401C2.652 5.07081 2.62069 5.04804 2.62936 5.02054L2.69653 4.80818L2.51736 4.67586C2.49418 4.65873 2.5061 4.62191 2.53496 4.62167L2.75769 4.61995L2.82814 4.40864C2.83737 4.38128 2.87605 4.38128 2.88519 4.40864Z" fill="#F5F5F5"/>
<path d="M2.88524 6.20482L2.9557 6.41612L3.17842 6.41785C3.20724 6.41808 3.21923 6.45487 3.19602 6.472L3.01686 6.60432L3.08403 6.81668C3.09273 6.84417 3.06145 6.86692 3.03794 6.85015L2.85679 6.72059L2.67556 6.85012C2.65212 6.86692 2.62081 6.84414 2.62948 6.81665L2.69665 6.60428L2.51748 6.47197C2.49431 6.45483 2.50623 6.41805 2.53508 6.41781L2.75781 6.41609L2.82826 6.20478C2.83743 6.17746 2.87611 6.17746 2.88524 6.20482Z" fill="#F5F5F5"/>
<path d="M2.88519 7.83931L2.95564 8.05061L3.17837 8.05234C3.20719 8.05257 3.21918 8.08936 3.19597 8.10649L3.0168 8.23881L3.08397 8.45117C3.09267 8.47867 3.06139 8.50141 3.03789 8.48464L2.85666 8.35512L2.67544 8.48464C2.652 8.50144 2.62069 8.47867 2.62936 8.45117L2.69653 8.23881L2.51736 8.10649C2.49418 8.08936 2.5061 8.05254 2.53496 8.05234L2.75769 8.05061L2.82814 7.83931C2.83737 7.81195 2.87605 7.81195 2.88519 7.83931Z" fill="#F5F5F5"/>
<path d="M3.74322 1.52573L3.81367 1.73704L4.0364 1.73877C4.06522 1.739 4.07721 1.77579 4.054 1.79292L3.87483 1.92523L3.942 2.1376C3.9507 2.16509 3.91943 2.18784 3.89592 2.17107L3.7147 2.04155L3.53347 2.17107C3.51003 2.18787 3.47872 2.16509 3.48739 2.1376L3.55456 1.92523L3.37539 1.79292C3.35222 1.77579 3.36414 1.739 3.39299 1.73877L3.61582 1.73704L3.68627 1.52573C3.6954 1.49837 3.73409 1.49837 3.74322 1.52573Z" fill="#F5F5F5"/>
<path d="M3.74322 3.48072L3.81367 3.69202L4.0364 3.69375C4.06522 3.69398 4.07721 3.73077 4.054 3.7479L3.87483 3.88022L3.942 4.09258C3.9507 4.12008 3.91943 4.14282 3.89592 4.12605L3.7147 3.99653L3.53347 4.12605C3.51003 4.14285 3.47872 4.12008 3.48739 4.09258L3.55456 3.88022L3.37539 3.7479C3.35222 3.73077 3.36414 3.69398 3.39299 3.69375L3.61572 3.69202L3.68617 3.48072C3.6954 3.45336 3.73409 3.45336 3.74322 3.48072Z" fill="#F5F5F5"/>
<path d="M3.74322 5.33802L3.81367 5.54933L4.0364 5.55105C4.06522 5.55128 4.07721 5.58807 4.054 5.60521L3.87483 5.73752L3.942 5.94989C3.9507 5.97738 3.91943 6.00012 3.89592 5.98336L3.7147 5.85383L3.53347 5.98336C3.51003 6.00016 3.47872 5.97738 3.48739 5.94989L3.55456 5.73752L3.37539 5.60521C3.35222 5.58807 3.36414 5.55128 3.39299 5.55105L3.61572 5.54933L3.68617 5.33802C3.6954 5.31069 3.73409 5.31069 3.74322 5.33802Z" fill="#F5F5F5"/>
<path d="M3.74322 7.00607L3.81367 7.21738L4.0364 7.2191C4.06522 7.21934 4.07721 7.25612 4.054 7.27326L3.87483 7.40557L3.942 7.61794C3.9507 7.64543 3.91943 7.66818 3.89592 7.65141L3.7147 7.52188L3.53347 7.65141C3.51003 7.66821 3.47872 7.64543 3.48739 7.61794L3.55456 7.40557L3.37539 7.27326C3.35222 7.25612 3.36414 7.21934 3.39299 7.2191L3.61572 7.21738L3.68617 7.00607C3.6954 6.97868 3.73409 6.97868 3.74322 7.00607Z" fill="#F5F5F5"/>
<path d="M4.60113 0.691052L4.67159 0.902357L4.89431 0.904083C4.92313 0.904316 4.93512 0.941105 4.91191 0.958237L4.73275 1.09055L4.79992 1.30292C4.80861 1.33041 4.77734 1.35316 4.75383 1.33639L4.57261 1.20686L4.39138 1.33639C4.36794 1.35319 4.33663 1.33041 4.3453 1.30292L4.41247 1.09055L4.2333 0.958237C4.21013 0.941105 4.22205 0.904316 4.2509 0.904083L4.47363 0.902357L4.54408 0.691052C4.55332 0.663692 4.592 0.663692 4.60113 0.691052Z" fill="#F5F5F5"/>
<path d="M4.60113 2.4537L4.67159 2.66501L4.89431 2.66673C4.92313 2.66697 4.93512 2.70375 4.91191 2.72089L4.73275 2.8532L4.79992 3.06557C4.80861 3.09306 4.77734 3.1158 4.75383 3.09904L4.57261 2.96951L4.39138 3.09904C4.36794 3.11584 4.33663 3.09306 4.3453 3.06557L4.41247 2.8532L4.2333 2.72089C4.21013 2.70375 4.22205 2.66697 4.2509 2.66673L4.47363 2.66501L4.54408 2.4537C4.55332 2.42631 4.592 2.42631 4.60113 2.4537Z" fill="#F5F5F5"/>
<path d="M4.60113 4.40864L4.67159 4.61995L4.89431 4.62167C4.92313 4.62191 4.93512 4.6587 4.91191 4.67586L4.73275 4.80818L4.79992 5.02054C4.80861 5.04804 4.77734 5.07078 4.75383 5.05401L4.57261 4.92449L4.39138 5.05401C4.36794 5.07081 4.33663 5.04804 4.3453 5.02054L4.41247 4.80818L4.2333 4.67586C4.21013 4.65873 4.22205 4.62191 4.2509 4.62167L4.47363 4.61995L4.54408 4.40864C4.55332 4.38128 4.592 4.38128 4.60113 4.40864Z" fill="#F5F5F5"/>
<path d="M4.60113 6.20482L4.67159 6.41612L4.89431 6.41785C4.92313 6.41808 4.93512 6.45487 4.91191 6.472L4.73275 6.60432L4.79992 6.81669C4.80861 6.84418 4.77734 6.86692 4.75383 6.85015L4.57261 6.72063L4.39138 6.85015C4.36794 6.86696 4.33663 6.84418 4.3453 6.81669L4.41247 6.60432L4.2333 6.472C4.21013 6.45487 4.22205 6.41808 4.2509 6.41785L4.47363 6.41612L4.54408 6.20482C4.55332 6.17746 4.592 6.17746 4.60113 6.20482Z" fill="#F5F5F5"/>
<path d="M4.60113 7.83931L4.67159 8.05061L4.89431 8.05234C4.92313 8.05257 4.93512 8.08936 4.91191 8.10649L4.73275 8.23881L4.79992 8.45117C4.80861 8.47867 4.77734 8.50141 4.75383 8.48464L4.57261 8.35512L4.39138 8.48464C4.36794 8.50144 4.33663 8.47867 4.3453 8.45117L4.41247 8.23881L4.2333 8.10649C4.21013 8.08936 4.22205 8.05254 4.2509 8.05234L4.47363 8.05061L4.54408 7.83931C4.55332 7.81195 4.592 7.81195 4.60113 7.83931Z" fill="#F5F5F5"/>
<path d="M5.45904 1.52573L5.52949 1.73704L5.75222 1.73877C5.78104 1.739 5.79303 1.77579 5.76982 1.79292L5.59065 1.92523L5.65782 2.1376C5.66652 2.16509 5.63525 2.18784 5.61174 2.17107L5.43052 2.04155L5.24929 2.17107C5.22585 2.18787 5.19454 2.16509 5.20321 2.1376L5.27038 1.92523L5.09121 1.79292C5.06804 1.77579 5.07996 1.739 5.10878 1.73877L5.33151 1.73704L5.40196 1.52573C5.41123 1.49837 5.44991 1.49837 5.45904 1.52573Z" fill="#F5F5F5"/>
<path d="M5.45904 3.48072L5.52949 3.69202L5.75222 3.69375C5.78104 3.69398 5.79303 3.73077 5.76982 3.7479L5.59065 3.88022L5.65782 4.09258C5.66652 4.12008 5.63525 4.14282 5.61174 4.12605L5.43052 3.99653L5.24929 4.12605C5.22585 4.14285 5.19454 4.12008 5.20321 4.09258L5.27038 3.88022L5.09121 3.7479C5.06804 3.73077 5.07996 3.69398 5.10878 3.69375L5.33151 3.69202L5.40196 3.48072C5.41123 3.45336 5.44991 3.45336 5.45904 3.48072Z" fill="#F5F5F5"/>
<path d="M5.45904 5.33802L5.52949 5.54933L5.75222 5.55105C5.78104 5.55128 5.79303 5.58807 5.76982 5.60521L5.59065 5.73752L5.65782 5.94989C5.66652 5.97738 5.63525 6.00012 5.61174 5.98336L5.43052 5.85383L5.24929 5.98336C5.22585 6.00016 5.19454 5.97738 5.20321 5.94989L5.27038 5.73752L5.09121 5.60521C5.06804 5.58807 5.07996 5.55128 5.10878 5.55105L5.33151 5.54933L5.40196 5.33802C5.41123 5.31069 5.44991 5.31069 5.45904 5.33802Z" fill="#F5F5F5"/>
<path d="M5.45904 7.00607L5.52949 7.21738L5.75222 7.2191C5.78104 7.21934 5.79303 7.25612 5.76982 7.27326L5.59065 7.40557L5.65782 7.61794C5.66652 7.64543 5.63525 7.66818 5.61174 7.65141L5.43052 7.52188L5.24929 7.65141C5.22585 7.66821 5.19454 7.64543 5.20321 7.61794L5.27038 7.40557L5.09121 7.27326C5.06804 7.25612 5.07996 7.21934 5.10878 7.2191L5.33151 7.21738L5.40196 7.00607C5.41123 6.97868 5.44991 6.97868 5.45904 7.00607Z" fill="#F5F5F5"/>
<path d="M6.31707 0.691052L6.38753 0.902357L6.61025 0.904083C6.63907 0.904316 6.65106 0.941105 6.62785 0.958237L6.44869 1.09055L6.51586 1.30292C6.52456 1.33041 6.49328 1.35316 6.46977 1.33639L6.28855 1.20686L6.10733 1.33639C6.08388 1.35319 6.05257 1.33041 6.06124 1.30292L6.12841 1.09055L5.94925 0.958237C5.92607 0.941105 5.93799 0.904316 5.96684 0.904083L6.18957 0.902357L6.26003 0.691052C6.26926 0.663692 6.30794 0.663692 6.31707 0.691052Z" fill="#F5F5F5"/>
<path d="M6.31707 2.4537L6.38753 2.66501L6.61025 2.66673C6.63907 2.66697 6.65106 2.70375 6.62785 2.72089L6.44869 2.8532L6.51586 3.06557C6.52456 3.09306 6.49328 3.1158 6.46977 3.09904L6.28855 2.96951L6.10733 3.09904C6.08388 3.11584 6.05257 3.09306 6.06124 3.06557L6.12841 2.8532L5.94925 2.72089C5.92607 2.70375 5.93799 2.66697 5.96684 2.66673L6.18957 2.66501L6.26003 2.4537C6.26926 2.42631 6.30794 2.42631 6.31707 2.4537Z" fill="#F5F5F5"/>
<path d="M6.31707 4.40864L6.38753 4.61995L6.61025 4.62167C6.63907 4.62191 6.65106 4.6587 6.62785 4.67586L6.44869 4.80818L6.51586 5.02054C6.52456 5.04804 6.49328 5.07078 6.46977 5.05401L6.28855 4.92449L6.10733 5.05401C6.08388 5.07081 6.05257 5.04804 6.06124 5.02054L6.12841 4.80818L5.94925 4.67586C5.92607 4.65873 5.93799 4.62191 5.96684 4.62167L6.18957 4.61995L6.26003 4.40864C6.26926 4.38128 6.30794 4.38128 6.31707 4.40864Z" fill="#F5F5F5"/>
<path d="M6.31707 6.20482L6.38753 6.41612L6.61025 6.41785C6.63907 6.41808 6.65106 6.45487 6.62785 6.472L6.44869 6.60432L6.51586 6.81669C6.52456 6.84418 6.49328 6.86692 6.46977 6.85015L6.28855 6.72063L6.10733 6.85015C6.08388 6.86696 6.05257 6.84418 6.06124 6.81669L6.12841 6.60432L5.94925 6.472C5.92607 6.45487 5.93799 6.41808 5.96684 6.41785L6.18957 6.41612L6.26003 6.20482C6.26926 6.17746 6.30794 6.17746 6.31707 6.20482Z" fill="#F5F5F5"/>
<path d="M6.31707 7.83931L6.38753 8.05061L6.61025 8.05234C6.63907 8.05257 6.65106 8.08936 6.62785 8.10649L6.44869 8.23881L6.51586 8.45117C6.52456 8.47867 6.49328 8.50141 6.46977 8.48464L6.28855 8.35512L6.10733 8.48464C6.08388 8.50144 6.05257 8.47867 6.06124 8.45117L6.12841 8.23881L5.94925 8.10649C5.92607 8.08936 5.93799 8.05254 5.96684 8.05234L6.18957 8.05061L6.26003 7.83931C6.26926 7.81195 6.30794 7.81195 6.31707 7.83931Z" fill="#F5F5F5"/>
<path d="M7.17498 1.52573L7.24544 1.73704L7.46816 1.73877C7.49698 1.739 7.50897 1.77579 7.48576 1.79292L7.3066 1.92523L7.37377 2.1376C7.38247 2.16509 7.35119 2.18784 7.32768 2.17107L7.14646 2.04155L6.96524 2.17107C6.94179 2.18787 6.91048 2.16509 6.91915 2.1376L6.98632 1.92523L6.80716 1.79292C6.78398 1.77579 6.7959 1.739 6.82475 1.73877L7.04748 1.73704L7.11794 1.52573C7.12713 1.49837 7.16585 1.49837 7.17498 1.52573Z" fill="#F5F5F5"/>
<path d="M7.17498 3.48072L7.24544 3.69202L7.46816 3.69375C7.49698 3.69398 7.50897 3.73077 7.48576 3.7479L7.3066 3.88022L7.37377 4.09258C7.38247 4.12008 7.35119 4.14282 7.32768 4.12605L7.14646 3.99653L6.96524 4.12605C6.94179 4.14285 6.91048 4.12008 6.91915 4.09258L6.98632 3.88022L6.80716 3.7479C6.78398 3.73077 6.7959 3.69398 6.82475 3.69375L7.04748 3.69202L7.11794 3.48072C7.12713 3.45336 7.16585 3.45336 7.17498 3.48072Z" fill="#F5F5F5"/>
<path d="M7.17498 5.33802L7.24544 5.54933L7.46816 5.55105C7.49698 5.55128 7.50897 5.58807 7.48576 5.60521L7.3066 5.73752L7.37377 5.94989C7.38247 5.97738 7.35119 6.00012 7.32768 5.98336L7.14646 5.85383L6.96524 5.98336C6.94179 6.00016 6.91048 5.97738 6.91915 5.94989L6.98632 5.73752L6.80716 5.60521C6.78398 5.58807 6.7959 5.55128 6.82475 5.55105L7.04748 5.54933L7.11794 5.33802C7.12713 5.31069 7.16585 5.31069 7.17498 5.33802Z" fill="#F5F5F5"/>
<path d="M7.17498 7.00607L7.24544 7.21738L7.46816 7.2191C7.49698 7.21934 7.50897 7.25612 7.48576 7.27326L7.3066 7.40557L7.37377 7.61794C7.38247 7.64543 7.35119 7.66818 7.32768 7.65141L7.14646 7.52188L6.96524 7.65141C6.94179 7.66821 6.91048 7.64543 6.91915 7.61794L6.98632 7.40557L6.80716 7.27326C6.78398 7.25612 6.7959 7.21934 6.82475 7.2191L7.04748 7.21738L7.11794 7.00607C7.12713 6.97868 7.16585 6.97868 7.17498 7.00607Z" fill="#F5F5F5"/>
<path d="M8.03289 0.691052L8.10335 0.902357L8.32607 0.904083C8.35489 0.904316 8.36688 0.941105 8.34367 0.958237L8.16451 1.09055L8.23168 1.30292C8.24038 1.33041 8.2091 1.35316 8.18559 1.33639L8.00437 1.20686L7.82315 1.33639C7.7997 1.35319 7.76839 1.33041 7.77706 1.30292L7.84423 1.09055L7.66507 0.958237C7.64189 0.941105 7.65381 0.904316 7.68266 0.904083L7.90539 0.902357L7.97585 0.691052C7.98504 0.663692 8.02376 0.663692 8.03289 0.691052Z" fill="#F5F5F5"/>
<path d="M8.03289 2.4537L8.10335 2.66501L8.32607 2.66673C8.35489 2.66697 8.36688 2.70375 8.34367 2.72089L8.16451 2.8532L8.23168 3.06557C8.24038 3.09306 8.2091 3.1158 8.18559 3.09904L8.00437 2.96951L7.82315 3.09904C7.7997 3.11584 7.76839 3.09306 7.77706 3.06557L7.84423 2.8532L7.66507 2.72089C7.64189 2.70375 7.65381 2.66697 7.68266 2.66673L7.90539 2.66501L7.97585 2.4537C7.98504 2.42631 8.02376 2.42631 8.03289 2.4537Z" fill="#F5F5F5"/>
<path d="M8.03289 4.40864L8.10335 4.61995L8.32607 4.62167C8.35489 4.62191 8.36688 4.6587 8.34367 4.67586L8.16451 4.80818L8.23168 5.02054C8.24038 5.04804 8.2091 5.07078 8.18559 5.05401L8.00437 4.92449L7.82315 5.05401C7.7997 5.07081 7.76839 5.04804 7.77706 5.02054L7.84423 4.80818L7.66507 4.67586C7.64189 4.65873 7.65381 4.62191 7.68266 4.62167L7.90539 4.61995L7.97585 4.40864C7.98504 4.38128 8.02376 4.38128 8.03289 4.40864Z" fill="#F5F5F5"/>
<path d="M8.03289 6.20482L8.10335 6.41612L8.32607 6.41785C8.35489 6.41808 8.36688 6.45487 8.34367 6.472L8.16451 6.60432L8.23168 6.81669C8.24038 6.84418 8.2091 6.86692 8.18559 6.85015L8.00437 6.72063L7.82315 6.85015C7.7997 6.86696 7.76839 6.84418 7.77706 6.81669L7.84423 6.60432L7.66507 6.472C7.64189 6.45487 7.65381 6.41808 7.68266 6.41785L7.90539 6.41612L7.97585 6.20482C7.98504 6.17746 8.02376 6.17746 8.03289 6.20482Z" fill="#F5F5F5"/>
<path d="M8.03289 7.83931L8.10335 8.05061L8.32607 8.05234C8.35489 8.05257 8.36688 8.08936 8.34367 8.10649L8.16451 8.23881L8.23168 8.45117C8.24038 8.47867 8.2091 8.50141 8.18559 8.48464L8.00437 8.35512L7.82315 8.48464C7.7997 8.50144 7.76839 8.47867 7.77706 8.45117L7.84423 8.23881L7.66507 8.10649C7.64189 8.08936 7.65381 8.05254 7.68266 8.05234L7.90539 8.05061L7.97585 7.83931C7.98504 7.81195 8.02376 7.81195 8.03289 7.83931Z" fill="#F5F5F5"/>
</svg>
