<svg width="17" height="17" viewBox="0 0 17 17" fill="none" xmlns="http://www.w3.org/2000/svg">
<path opacity="0.3" fill-rule="evenodd" clip-rule="evenodd" d="M8.5 12.7501L8.50004 12.7501L11.3931 14.2711C11.531 14.3436 11.689 14.3686 11.8425 14.3422C12.2281 14.2761 12.487 13.9099 12.4209 13.5244L11.8684 10.3028L14.2089 8.02134C14.3205 7.91261 14.3931 7.77013 14.4155 7.61597C14.4717 7.22884 14.2035 6.8694 13.8164 6.81314L10.5818 6.34313L9.13523 3.4121C9.06628 3.2724 8.95321 3.15934 8.81352 3.09039C8.71255 3.04056 8.60546 3.017 8.5 3.01709V12.7501Z" fill="#FFA800"/>
<path fill-rule="evenodd" clip-rule="evenodd" d="M8.50003 3.01709C8.2391 3.0173 7.98819 3.16226 7.86489 3.4121L6.41833 6.34313L3.18375 6.81314C3.02959 6.83554 2.88711 6.90814 2.77838 7.01969C2.50531 7.29982 2.51105 7.74828 2.79118 8.02134L5.13175 10.3028L4.57921 13.5244C4.55288 13.6779 4.5779 13.8358 4.65039 13.9737C4.83243 14.32 5.26071 14.4531 5.60697 14.2711L8.50003 12.7501V3.01709Z" fill="#FFA800"/>
</svg>
