<svg width="20" height="20" viewBox="0 0 20 20" fill="none" xmlns="http://www.w3.org/2000/svg">
<path fill-rule="evenodd" clip-rule="evenodd" d="M18.3296 14.9755C18.6452 15.2911 19.1847 15.0664 19.1831 14.6201L19.1699 10.9211V4.60526C19.1699 3.44256 18.2274 2.5 17.0647 2.5H7.24012C6.07742 2.5 5.13486 3.44256 5.13486 4.60526V7.5H10.3333C11.9902 7.5 13.3333 8.84315 13.3333 10.5V13.0263H16.3804L18.3296 14.9755Z" fill="#1BC5BD"/>
<path opacity="0.3" fill-rule="evenodd" clip-rule="evenodd" d="M1.65421 15V10.8334C1.65421 9.91288 2.4004 9.16669 3.32087 9.16669H9.98754C10.908 9.16669 11.6542 9.91288 11.6542 10.8334V15C11.6542 15.9205 10.908 16.6667 9.98754 16.6667H3.41731L2.52172 17.5239C2.20372 17.8283 1.676 17.6029 1.676 17.1627V15.2702C1.66166 15.1823 1.65421 15.092 1.65421 15ZM4.99999 12.0834C4.99999 11.8532 5.18654 11.6667 5.41666 11.6667H9.58332C9.81344 11.6667 9.99999 11.8532 9.99999 12.0834C9.99999 12.3135 9.81344 12.5 9.58332 12.5H5.41666C5.18654 12.5 4.99999 12.3135 4.99999 12.0834ZM7.91666 13.3334C7.68654 13.3334 7.49999 13.5199 7.49999 13.75C7.49999 13.9801 7.68654 14.1667 7.91666 14.1667H9.58333C9.81344 14.1667 9.99999 13.9801 9.99999 13.75C9.99999 13.5199 9.81344 13.3334 9.58333 13.3334H7.91666Z" fill="#1BC5BD"/>
</svg>
