<svg width="20" height="20" viewBox="0 0 20 20" fill="none" xmlns="http://www.w3.org/2000/svg">
<path fill-rule="evenodd" clip-rule="evenodd" d="M9.99999 13.3334C7.6988 13.3334 5.83332 11.4679 5.83332 9.16669H4.16666C4.16666 12.1061 6.34079 14.5378 9.1687 14.9412C9.16735 14.9607 9.16666 14.9803 9.16666 15V17.5C9.16666 17.9603 9.53975 18.3334 9.99999 18.3334C10.4602 18.3334 10.8333 17.9603 10.8333 17.5V15C10.8333 14.9803 10.8326 14.9607 10.8313 14.9412C13.6592 14.5378 15.8333 12.1061 15.8333 9.16669H14.1667C14.1667 11.4679 12.3012 13.3334 9.99999 13.3334Z" fill="#FFA800"/>
<rect opacity="0.3" x="7.5" y="1.66669" width="5" height="10" rx="2.5" fill="#FFA800"/>
</svg>
