<svg width="28" height="28" viewBox="0 0 28 28" fill="none" xmlns="http://www.w3.org/2000/svg">
<path d="M9.32278 28C5.81305 28 2.9577 25.1447 2.9577 21.6349V10.7345C2.9577 4.81545 7.7731 0 13.6921 0H14.3079C20.2269 0 25.0424 4.81545 25.0424 10.7345C25.0424 16.1662 20.993 20.7001 15.6879 21.3807V21.6349C15.6879 25.1447 12.8325 28 9.32278 28Z" fill="#FF3C3C"/>
<path d="M14.3078 0H14V25.9471C15.0471 24.8123 15.6878 23.2971 15.6878 21.6349V21.3807C20.993 20.7001 25.0424 16.1662 25.0424 10.7345C25.0423 4.81545 20.2269 0 14.3078 0Z" fill="#DA0806"/>
<path d="M14.3079 3.27289H13.6922C9.5779 3.27289 6.23059 6.62026 6.23059 10.7345V21.6347C6.23059 23.3399 7.61758 24.7269 9.32284 24.7269C11.0276 24.7269 12.4145 23.3399 12.4145 21.6347V18.1961H14.3078C18.4221 18.1961 21.7694 14.8487 21.7694 10.7345C21.7694 6.62031 18.4221 3.27289 14.3079 3.27289ZM14.3079 13.6607H11.59C11.1348 13.6607 10.7653 13.2919 10.7653 12.8361V10.7345C10.7653 9.12041 12.0781 7.80763 13.6922 7.80763H14.3079C15.9219 7.80763 17.2347 9.12041 17.2347 10.7345C17.2347 12.348 15.9219 13.6607 14.3079 13.6607Z" fill="white"/>
<path d="M14.3078 3.27289H14V7.80769H14.3078C15.9219 7.80769 17.2347 9.12046 17.2347 10.7345C17.2347 12.348 15.9219 13.6608 14.3078 13.6608H14V18.1961H14.3078C18.4221 18.1961 21.7694 14.8488 21.7694 10.7346C21.7694 6.62036 18.4221 3.27289 14.3078 3.27289Z" fill="#DCE1EB"/>
</svg>
