<svg width="17" height="17" viewBox="0 0 17 17" fill="none" xmlns="http://www.w3.org/2000/svg">
<path fill-rule="evenodd" clip-rule="evenodd" d="M8.49995 12.7501L5.60685 14.2711C5.26058 14.4531 4.83231 14.32 4.65026 13.9737C4.57777 13.8358 4.55276 13.6779 4.57909 13.5244L5.13163 10.3028L2.79106 8.02134C2.51092 7.74828 2.50519 7.29982 2.77825 7.01969C2.88699 6.90814 3.02947 6.83554 3.18362 6.81314L6.41821 6.34313L7.86476 3.4121C8.0379 3.06129 8.46263 2.91726 8.81344 3.09039C8.95313 3.15934 9.0662 3.2724 9.13514 3.4121L10.5817 6.34313L13.8163 6.81314C14.2034 6.8694 14.4716 7.22884 14.4154 7.61597C14.393 7.77013 14.3204 7.91261 14.2088 8.02134L11.8683 10.3028L12.4208 13.5244C12.4869 13.9099 12.228 14.2761 11.8424 14.3422C11.6889 14.3686 11.5309 14.3436 11.3931 14.2711L8.49995 12.7501Z" fill="#FFA800"/>
</svg>
