<svg width="400" height="293" viewBox="0 0 400 293" fill="none" xmlns="http://www.w3.org/2000/svg">
<g clip-path="url(#clip0_436_9214)">
<path d="M426.002 221.337C426.002 260.913 393.241 293.002 352.836 293.002C312.427 293.002 279.671 260.913 279.671 221.337C279.671 181.756 312.427 149.671 352.836 149.671C393.241 149.671 426.002 181.756 426.002 221.337Z" fill="#F8F9FB"/>
<path d="M334.545 51.126C334.545 85.7613 305.883 113.835 270.523 113.835C235.163 113.835 206.501 85.7613 206.501 51.126C206.501 16.4947 235.163 -11.5835 270.523 -11.5835C305.883 -11.5835 334.545 16.4947 334.545 51.126Z" fill="#F8F9FB"/>
<path d="M206.501 185.498C206.501 244.87 157.362 293.001 96.7483 293.001C36.1385 293.001 -13 244.87 -13 185.498C-13 126.127 36.1385 78 96.7483 78C157.362 78 206.501 126.127 206.501 185.498Z" fill="#F8F9FB"/>
<path d="M169.922 -47.4139C169.922 2.06221 128.973 42.1721 78.4611 42.1721C27.9494 42.1721 -13 2.06221 -13 -47.4139C-13 -96.8901 27.9494 -137 78.4611 -137C128.973 -137 169.922 -96.8901 169.922 -47.4139Z" fill="#F8F9FB"/>
<path d="M407.706 95.9123C407.706 105.808 399.517 113.829 389.415 113.829C379.312 113.829 371.123 105.808 371.123 95.9123C371.123 86.0212 379.312 78 389.415 78C399.517 78 407.706 86.0212 407.706 95.9123Z" fill="#F8F9FB"/>
</g>
<defs>
<clipPath id="clip0_436_9214">
<rect width="439" height="430" fill="white" transform="translate(-13 -137)"/>
</clipPath>
</defs>
</svg>
