<svg width="20" height="20" viewBox="0 0 20 20" fill="none" xmlns="http://www.w3.org/2000/svg">
<path opacity="0.3" fill-rule="evenodd" clip-rule="evenodd" d="M8.23224 10.5892L6.46447 12.357C6.13904 12.6824 6.13904 13.2101 6.46447 13.5355C6.78991 13.861 7.31755 13.861 7.64298 13.5355L9.41075 11.7678L10 12.357C10.6509 13.0079 10.6509 14.0632 10 14.714L7.64298 17.0711C6.99211 17.7219 5.93684 17.7219 5.28596 17.0711L2.92894 14.714C2.27806 14.0632 2.27806 13.0079 2.92894 12.357L5.28596 9.99999C5.93684 9.34911 6.99211 9.34911 7.64298 9.99999L8.23224 10.5892Z" fill="#F64E60"/>
<path fill-rule="evenodd" clip-rule="evenodd" d="M11.7678 9.41076L13.5355 7.64299C13.861 7.31755 13.861 6.78991 13.5355 6.46448C13.2101 6.13904 12.6825 6.13904 12.357 6.46448L10.5893 8.23224L10 7.64299C9.34914 6.99212 9.34914 5.93684 10 5.28597L12.357 2.92894C13.0079 2.27807 14.0632 2.27807 14.7141 2.92894L17.0711 5.28597C17.722 5.93684 17.722 6.99211 17.0711 7.64299L14.7141 10C14.0632 10.6509 13.0079 10.6509 12.357 10L11.7678 9.41076Z" fill="#F64E60"/>
<path opacity="0.3" fill-rule="evenodd" clip-rule="evenodd" d="M3.5182 4.69669C3.19276 4.37125 3.19276 3.84361 3.5182 3.51818C3.84364 3.19274 4.37128 3.19274 4.69671 3.51818L5.87522 4.69669C6.20066 5.02212 6.20066 5.54976 5.87522 5.8752C5.54979 6.20063 5.02215 6.20063 4.69671 5.8752L3.5182 4.69669ZM6.95263 2.09559C6.95263 1.63535 7.32573 1.26225 7.78597 1.26225C8.2462 1.26225 8.6193 1.63535 8.6193 2.09559L8.6193 3.76225C8.6193 4.22249 8.2462 4.59559 7.78597 4.59559C7.32573 4.59559 6.95263 4.22249 6.95263 3.76225V2.09559ZM1.40526 7.64296C1.40526 7.18273 1.77835 6.80963 2.23859 6.80963L3.90526 6.80963C4.36549 6.80963 4.73859 7.18273 4.73859 7.64296C4.73859 8.1032 4.36549 8.4763 3.90526 8.4763L2.23859 8.4763C1.77835 8.4763 1.40526 8.1032 1.40526 7.64296Z" fill="#F64E60"/>
<path opacity="0.3" fill-rule="evenodd" clip-rule="evenodd" d="M15.2022 16.3807C15.5276 16.7062 16.0553 16.7062 16.3807 16.3807C16.7062 16.0553 16.7062 15.5277 16.3807 15.2022L15.2022 14.0237C14.8768 13.6983 14.3491 13.6983 14.0237 14.0237C13.6983 14.3491 13.6983 14.8768 14.0237 15.2022L15.2022 16.3807ZM17.8033 12.9463C18.2635 12.9463 18.6366 12.5732 18.6366 12.113C18.6366 11.6527 18.2635 11.2796 17.8033 11.2796L16.1366 11.2796C15.6764 11.2796 15.3033 11.6527 15.3033 12.113C15.3033 12.5732 15.6764 12.9463 16.1366 12.9463L17.8033 12.9463ZM12.2559 18.4937C12.7162 18.4937 13.0893 18.1206 13.0893 17.6603V15.9937C13.0893 15.5334 12.7162 15.1603 12.2559 15.1603C11.7957 15.1603 11.4226 15.5334 11.4226 15.9937L11.4226 17.6603C11.4226 18.1206 11.7957 18.4937 12.2559 18.4937Z" fill="#F64E60"/>
</svg>
