<svg width="17" height="17" viewBox="0 0 17 17" fill="none" xmlns="http://www.w3.org/2000/svg">
<path d="M15.0372 11.8432C14.0134 10.9581 13.2814 8.60626 13.2814 5.84377C13.2814 3.75276 11.9373 1.97998 10.0673 1.3308C9.94143 0.576407 9.29011 0 8.50013 0C7.71017 0 7.05886 0.576407 6.93293 1.33078C5.06293 1.97996 3.71888 3.75276 3.71888 5.84377C3.71888 8.60575 2.98736 10.957 1.9631 11.8432C1.39148 12.3378 1.06262 13.056 1.06262 13.8125C1.06262 14.6928 1.77609 15.4063 2.65636 15.4063H6.90636C6.90636 16.2865 7.61983 17 8.5001 17C9.38038 17 10.0938 16.2865 10.0938 15.4063H14.3438C15.2241 15.4063 15.9376 14.6928 15.9376 13.8125C15.9376 13.0566 15.6093 12.3378 15.0372 11.8432ZM2.65636 13.8125C2.65636 13.5193 2.78387 13.2404 3.00539 13.0486C4.4286 11.8182 5.3126 9.05728 5.3126 5.84374C5.3126 4.08584 6.7422 2.65623 8.5001 2.65623C10.258 2.65623 11.6876 4.08584 11.6876 5.84374C11.6876 9.05728 12.5716 11.8182 13.9948 13.0486C14.2169 13.2409 14.3439 13.5192 14.3439 13.8125H2.65636Z" fill="#959CB6"/>
</svg>
