<svg width="29" height="28" viewBox="0 0 29 28" fill="none" xmlns="http://www.w3.org/2000/svg">
<g clip-path="url(#clip0_436_13282)">
<path d="M24.1627 25.5273L24.1191 25.1343C24.1018 24.9788 23.9618 24.8667 23.8063 24.884L23.7819 24.8867L23.3593 21.5066C23.2674 20.7714 22.7615 20.1542 22.0586 19.9199L19.3579 19.0196C19.127 18.9426 18.874 19.0493 18.7717 19.2701C18.767 19.2802 18.7621 19.2904 18.7574 19.3005L18.0944 19.0795C17.7016 18.9485 17.4366 18.5809 17.4366 18.1668V16.6154L19.5087 15.752C20.5842 15.3039 21.2848 14.2531 21.2848 13.0879V12.6068C22.0818 12.6068 22.7279 11.9608 22.7279 11.1638C22.7279 10.8323 22.6158 10.527 22.4279 10.2834C22.717 8.85137 23.2439 6.0615 23.2071 4.91033C23.1825 4.14068 22.6951 3.11037 21.283 2.50517C18.7589 1.42339 15.5943 1.10242 14.5503 0.101509V0.100006C14.5501 0.100247 14.5497 0.100487 14.5494 0.100728C14.5492 0.100487 14.5488 0.100247 14.5485 0.100006V0.101509C13.5046 1.10242 10.34 1.42339 7.81587 2.50517C6.40368 3.11037 5.91633 4.14068 5.89174 4.91033C5.85494 6.06198 6.38221 8.85377 6.67131 10.2853C6.48425 10.5286 6.37277 10.8331 6.37277 11.1638C6.37277 11.9608 7.01886 12.6068 7.81587 12.6068V13.0879C7.81587 14.253 8.51643 15.3039 9.59196 15.7521L11.6641 16.6155V18.1669C11.6641 18.581 11.3991 18.9487 11.0063 19.0796L10.3433 19.3007C10.3386 19.2906 10.3338 19.2804 10.3291 19.2702C10.2267 19.0494 9.97372 18.9428 9.74283 19.0197L7.04219 19.92C6.33922 20.1543 5.83329 20.7715 5.74142 21.5067L5.31889 24.8868L5.29442 24.8841C5.13892 24.8669 4.99894 24.9789 4.98163 25.1344L4.93797 25.5274C4.92072 25.6828 5.03274 25.8229 5.18817 25.8401L5.8918 25.9183V27.0379C5.8918 27.5692 6.3225 28 6.85386 28H9.25903H19.8417H22.2469C22.7783 28 23.209 27.5692 23.209 27.0379V25.9183L23.9126 25.8401C24.068 25.8227 24.18 25.6827 24.1627 25.5273Z" fill="#F6B47B"/>
<path d="M11.6636 16.5754V18.1669C11.6636 18.5092 11.4822 18.8194 11.1974 18.9907C15.2216 19.686 17.436 16.5754 17.436 16.5754H11.6636Z" fill="#E2A071"/>
<path d="M23.2067 4.91033C23.1821 4.14068 22.6947 3.11037 21.2826 2.50517C18.7585 1.42339 15.5939 1.10242 14.5499 0.101509V0.100006C14.5497 0.100247 14.5493 0.100487 14.549 0.100728C14.5488 0.100487 14.5484 0.100247 14.5481 0.100006V0.101509C13.5042 1.10242 10.3396 1.42339 7.81548 2.50517C6.40329 3.11037 5.91595 4.14068 5.89135 4.91033C5.84085 6.4913 6.85342 11.1638 6.85342 11.1638H22.2446C22.2446 11.1638 23.2572 6.4913 23.2067 4.91033Z" fill="#9D6E48"/>
<path d="M14.5481 0.100006V0.101509C13.5042 1.10242 10.3396 1.42339 7.81549 2.50517C6.40329 3.11037 5.91595 4.14068 5.89135 4.91033C5.84085 6.4913 6.85342 11.1638 6.85342 11.1638H11.1827C11.1827 11.1638 11.1827 8.34689 11.1827 6.83446C11.1827 3.62754 14.5499 2.10429 14.5499 0.100006C14.5497 0.100247 14.5493 0.100487 14.549 0.100728C14.5488 0.100487 14.5484 0.100247 14.5481 0.100006Z" fill="#8D5F3D"/>
<path d="M23.3589 21.5067C23.267 20.7714 22.761 20.1543 22.0581 19.9199L19.3575 19.0197C19.1265 18.9427 18.8736 19.0493 18.7712 19.2702C18.1037 20.71 17.1601 22.2768 14.5499 24.1516C11.9397 22.2768 10.9961 20.71 10.3286 19.2701C10.2262 19.0493 9.97321 18.9427 9.74226 19.0196L7.04162 19.9199C6.33865 20.1542 5.83272 20.7714 5.74085 21.5066L5.28333 25.1668L9.25852 25.5947V27.9999H19.8412V25.5947L23.8164 25.1668L23.3589 21.5067Z" fill="#4F6E7F"/>
<path d="M21.2844 9.72071V8.75865C21.2844 7.43034 20.2075 6.35349 18.8792 6.35349H10.2206C8.89232 6.35349 7.81547 7.43034 7.81547 8.75865V9.72071C7.01846 9.72071 6.37238 10.3668 6.37238 11.1638C6.37238 11.9608 7.01846 12.6069 7.81547 12.6069V13.0879C7.81547 14.2531 8.51604 15.3039 9.59156 15.7521L12.6997 17.0472C13.286 17.2915 13.9148 17.4172 14.5499 17.4172C15.1849 17.4172 15.8137 17.2915 16.4 17.0472L19.5083 15.7521C20.5838 15.304 21.2844 14.2531 21.2844 13.0879V12.6069C22.0814 12.6069 22.7275 11.9608 22.7275 11.1638C22.7275 10.3668 22.0814 9.72071 21.2844 9.72071Z" fill="#FDC88E"/>
<path d="M11.1828 11.6447C10.9182 11.6447 10.7017 11.4283 10.7017 11.1637V10.6827C10.7017 10.4181 10.9182 10.2016 11.1828 10.2016C11.4473 10.2016 11.6638 10.4181 11.6638 10.6827V11.1637C11.6638 11.4283 11.4473 11.6447 11.1828 11.6447Z" fill="#623F33"/>
<path d="M17.9172 11.6447C17.6526 11.6447 17.4362 11.4283 17.4362 11.1637V10.6827C17.4362 10.4181 17.6526 10.2016 17.9172 10.2016C18.1818 10.2016 18.3982 10.4181 18.3982 10.6827V11.1637C18.3982 11.4283 18.1818 11.6447 17.9172 11.6447Z" fill="#623F33"/>
<path d="M14.5498 15.0252C13.6946 15.0252 12.8946 14.8147 12.3551 14.4476C12.1355 14.2983 12.0783 13.999 12.228 13.7794C12.3771 13.5601 12.6766 13.5029 12.8962 13.6524C13.2744 13.9095 13.8926 14.0632 14.5498 14.0632C15.207 14.0632 15.8252 13.9095 16.2033 13.6524C16.4234 13.5025 16.7222 13.5598 16.8715 13.7794C17.0211 13.999 16.9641 14.2983 16.7445 14.4476C16.205 14.8147 15.405 15.0252 14.5498 15.0252Z" fill="#E2A071"/>
<path d="M10.3406 14.7548C9.95083 14.3369 9.7396 13.7855 9.7396 13.214V6.40189C8.64183 6.62478 7.81547 7.59503 7.81547 8.75858V9.72065C7.01846 9.72065 6.37238 10.3667 6.37238 11.1637C6.37238 11.9608 7.01846 12.6068 7.81547 12.6068V13.0879C7.81547 14.2531 8.51604 15.3039 9.59156 15.7521L12.6996 17.0471C12.8518 17.1105 13.007 17.1651 13.1643 17.2124C11.7906 16.2075 10.8763 15.3292 10.3406 14.7548Z" fill="#F6B47B"/>
<path d="M9.25857 25.9579V24.8692C9.25857 24.4064 9.09178 23.9591 8.78879 23.6093L6.14196 20.554C5.92839 20.8244 5.7854 21.151 5.74096 21.5066L5.23853 25.526C6.00361 25.572 8.03862 25.8104 9.25857 25.9579Z" fill="#33546A"/>
<path d="M9.25854 25.3245L5.29387 24.884C5.13837 24.8668 4.99839 24.9788 4.98108 25.1342L4.93742 25.5272C4.92017 25.6826 5.03219 25.8227 5.18762 25.8399L9.25854 26.2923V25.3245Z" fill="#4F6E7F"/>
<path d="M19.8413 25.9579V24.8692C19.8413 24.4064 20.0081 23.9591 20.3111 23.6093L22.9579 20.554C23.1715 20.8244 23.3145 21.151 23.3589 21.5066L23.8614 25.526C23.0963 25.572 21.0613 25.8104 19.8413 25.9579Z" fill="#33546A"/>
<path d="M19.8413 25.3245L23.806 24.884C23.9615 24.8668 24.1015 24.9788 24.1188 25.1342L24.1624 25.5272C24.1797 25.6826 24.0677 25.8227 23.9122 25.8399L19.8413 26.2923V25.3245Z" fill="#4F6E7F"/>
<path d="M16.8301 6.11301C17.505 6.59085 18.9802 7.74437 19.8412 9.23972C19.8412 9.23972 19.8623 7.55893 18.9571 6.11301H16.8301Z" fill="#9D6E48"/>
</g>
<defs>
<clipPath id="clip0_436_13282">
<rect width="27.9" height="27.9" fill="white" transform="translate(0.599976 0.100006)"/>
</clipPath>
</defs>
</svg>
