<svg width="40" height="40" viewBox="0 0 40 40" fill="none" xmlns="http://www.w3.org/2000/svg">
<g clip-path="url(#clip0_436_9014)">
<path d="M33.7812 36.4549L33.7186 35.8915C33.6939 35.6686 33.4931 35.5079 33.2703 35.5327L33.2352 35.5366L32.6294 30.6905C32.4976 29.6364 31.7723 28.7516 30.7644 28.4156L27.3983 27.2936C26.9361 27.1394 26.429 27.2375 26.0725 27.5413L25.081 27.2108C24.5177 27.023 24.1379 26.496 24.1379 25.9023V23.678L27.1087 22.4401C28.6507 21.7978 29.6551 20.2912 29.6551 18.6207V17.931C30.7978 17.931 31.7241 17.0047 31.7241 15.862C31.7241 15.517 31.6392 15.1919 31.4897 14.9058C31.64 14.5653 31.7241 14.1891 31.7241 13.7931C31.7241 13.5138 31.6702 13.2496 31.593 12.9956C32.0992 12.4955 32.4137 11.8021 32.4137 11.0345C32.4137 10.7551 32.3599 10.491 32.2827 10.237C32.7889 9.73688 33.1034 9.04352 33.1034 8.27584C33.1034 6.94904 32.1661 5.84257 30.9179 5.57852C30.9862 5.33826 31.0344 5.08973 31.0344 4.82758C31.0344 3.30404 29.7993 2.06896 28.2758 2.06896C27.7037 2.06896 27.1723 2.24327 26.7316 2.54155C26.3551 1.46595 25.342 0.689654 24.1379 0.689654C23.4576 0.689654 22.843 0.945257 22.3619 1.35345C21.8808 0.546292 21.008 0 20 0C18.9921 0 18.1194 0.546292 17.6381 1.35345C17.157 0.945257 16.5424 0.689654 15.8621 0.689654C14.658 0.689654 13.6449 1.46595 13.2684 2.54155C12.8277 2.24327 12.2963 2.06896 11.7242 2.06896C10.2007 2.06896 8.96559 3.30404 8.96559 4.82758C8.96559 5.08973 9.01387 5.33826 9.08214 5.57852C7.83387 5.84257 6.89654 6.94904 6.89654 8.27584C6.89654 9.04352 7.21111 9.73688 7.71723 10.237C7.64008 10.491 7.5862 10.7551 7.5862 11.0345C7.5862 11.8021 7.90077 12.4955 8.40689 12.9956C8.32973 13.2496 8.27585 13.5138 8.27585 13.7931C8.27585 14.1891 8.3599 14.5653 8.51025 14.9058C8.36085 15.1919 8.27585 15.517 8.27585 15.862C8.27585 17.0047 9.20214 17.931 10.3448 17.931V18.6207C10.3448 20.2911 11.3492 21.7977 12.8912 22.4403L15.862 23.6781V25.9024C15.862 26.4961 15.4821 27.0231 14.9189 27.2109L13.9274 27.5414C13.5709 27.2376 13.0639 27.1395 12.6016 27.2936L9.23551 28.4157C8.22766 28.7517 7.50232 29.6365 7.37051 30.6906L6.76473 35.5367L6.72965 35.5328C6.5068 35.508 6.30603 35.6686 6.28129 35.8916L6.2187 36.455C6.19396 36.6779 6.35456 36.8786 6.57741 36.9034L7.5862 37.0154V38.6206C7.5862 39.3823 8.20378 39.9999 8.96551 39.9999H12.4138H27.5862H31.0344C31.7962 39.9999 32.4137 39.3823 32.4137 38.6206V37.0154L33.4225 36.9033C33.6454 36.8785 33.8061 36.6778 33.7812 36.4549Z" fill="#C38762"/>
<path d="M32.2827 10.237C32.7888 9.73687 33.1033 9.04351 33.1033 8.27584C33.1033 6.94904 32.166 5.84257 30.9178 5.57852C30.9862 5.33826 31.0344 5.08973 31.0344 4.82758C31.0344 3.30404 29.7993 2.06896 28.2757 2.06896C27.7036 2.06896 27.1722 2.24327 26.7315 2.54155C26.3551 1.46595 25.342 0.689654 24.1378 0.689654C23.4576 0.689654 22.8429 0.945256 22.3619 1.35345C21.8808 0.546292 21.0079 0 20 0C18.9921 0 18.1193 0.546292 17.638 1.35345C17.157 0.945256 16.5423 0.689654 15.8621 0.689654C14.6579 0.689654 13.6448 1.46595 13.2684 2.54155C12.8276 2.24327 12.2962 2.06896 11.7241 2.06896C10.2006 2.06896 8.96553 3.30404 8.96553 4.82758C8.96553 5.08973 9.01381 5.33826 9.08208 5.57852C7.83381 5.84257 6.89648 6.94904 6.89648 8.27584C6.89648 9.04351 7.21105 9.73687 7.71717 10.237C7.64002 10.491 7.58614 10.7551 7.58614 11.0345C7.58614 11.8021 7.90071 12.4955 8.40683 12.9956C8.32967 13.2496 8.27579 13.5138 8.27579 13.7931C8.27579 15.3166 9.51087 16.5517 11.0344 16.5517C11.0347 16.5517 11.0349 16.5517 11.0353 16.5517H28.9646C28.9649 16.5517 28.9651 16.5517 28.9655 16.5517C30.489 16.5517 31.7241 15.3166 31.7241 13.7931C31.7241 13.5138 31.6702 13.2496 31.5931 12.9956C32.0992 12.4955 32.4138 11.8021 32.4138 11.0345C32.4137 10.7551 32.3599 10.491 32.2827 10.237Z" fill="#623F33"/>
<path d="M27.5861 40.0001V36.5518H33.362L32.6293 30.6907C32.4975 29.6366 31.7721 28.7518 30.7643 28.4158L27.3982 27.2937C26.812 27.0983 26.1525 27.307 25.8214 27.8287C24.599 29.7549 22.4503 31.0345 20 31.0345C17.5498 31.0345 15.401 29.7549 14.1785 27.8287C13.8473 27.3069 13.1879 27.0982 12.6017 27.2937L9.23554 28.4157C8.2277 28.7517 7.50236 29.6365 7.37055 30.6906L6.7146 35.9382L12.4138 36.5518V40H27.5862V40.0001H27.5861Z" fill="#FFD739"/>
<path d="M24.1379 23.678L15.8621 21.8389V25.9022C15.8621 26.3987 15.5874 26.836 15.171 27.0798C20.9549 28.0922 24.1379 23.678 24.1379 23.678Z" fill="#A46D4D"/>
<path d="M29.6551 13.7931V11.7241C29.6551 9.81971 28.1112 7.58618 26.2068 7.58618H13.793C11.8886 7.58618 10.3448 9.81971 10.3448 11.7241V13.7931C9.20211 13.7931 8.27582 14.7194 8.27582 15.862C8.27582 17.0047 9.20211 17.931 10.3448 17.931V18.6206C10.3448 20.2911 11.3492 21.7977 12.8912 22.4403L17.3473 24.297C18.1879 24.6473 19.0894 24.8275 19.9999 24.8275C20.9104 24.8275 21.8119 24.6472 22.6524 24.297L27.1088 22.4402C28.6507 21.7978 29.6551 20.2912 29.6551 18.6206V17.931C30.7978 17.931 31.724 17.0047 31.724 15.862C31.724 14.7194 30.7978 13.7931 29.6551 13.7931Z" fill="#D29771"/>
<path d="M15.1724 16.5516C14.7931 16.5516 14.4828 16.2413 14.4828 15.862V15.1723C14.4828 14.793 14.7931 14.4827 15.1724 14.4827C15.5518 14.4827 15.8621 14.793 15.8621 15.1723V15.862C15.8621 16.2413 15.5517 16.5516 15.1724 16.5516Z" fill="#623F33"/>
<path d="M24.8275 16.5516C24.4482 16.5516 24.1379 16.2413 24.1379 15.862V15.1723C24.1379 14.793 24.4482 14.4827 24.8275 14.4827C25.2068 14.4827 25.5172 14.793 25.5172 15.1723V15.862C25.5172 16.2413 25.2068 16.5516 24.8275 16.5516Z" fill="#623F33"/>
<path d="M20 21.398C18.7739 21.398 17.627 21.0963 16.8535 20.57C16.5387 20.3559 16.4568 19.9268 16.6713 19.612C16.8851 19.2975 17.3145 19.2156 17.6293 19.4298C18.1715 19.7986 19.0578 20.0188 20 20.0188C20.9423 20.0188 21.8286 19.7986 22.3707 19.4298C22.6862 19.215 23.1146 19.2972 23.3287 19.612C23.5432 19.9268 23.4614 20.3559 23.1466 20.57C22.3731 21.0963 21.2261 21.398 20 21.398Z" fill="#A46D4D"/>
<path d="M12.4139 37.0723V35.5114C12.4139 34.8479 12.1748 34.2067 11.7404 33.7051L7.94565 29.3247C7.63944 29.7124 7.43444 30.1807 7.37073 30.6905L6.65039 36.4531C7.7472 36.519 10.6648 36.8608 12.4139 37.0723Z" fill="#FFC33D"/>
<path d="M12.4139 36.1643L6.72973 35.5328C6.5068 35.508 6.30611 35.6687 6.28129 35.8915L6.2187 36.4549C6.19396 36.6778 6.35456 36.8786 6.57741 36.9033L12.4139 37.5518V36.1643Z" fill="#FFB440"/>
<path d="M27.5861 37.0723V35.5114C27.5861 34.8479 27.8253 34.2067 28.2597 33.7051L32.0544 29.3247C32.3606 29.7124 32.5656 30.1807 32.6293 30.6905L33.3496 36.4531C32.2528 36.519 29.3352 36.8608 27.5861 37.0723Z" fill="#FFC33D"/>
<path d="M27.5861 36.1643L33.2702 35.5328C33.4932 35.508 33.6939 35.6687 33.7187 35.8915L33.7813 36.4549C33.806 36.6778 33.6454 36.8786 33.4226 36.9033L27.5861 37.5518V36.1643Z" fill="#FFB440"/>
<path d="M10.3448 7.67236V13.793C9.20211 13.793 8.27582 14.7193 8.27582 15.862C8.27582 17.0047 9.20211 17.931 10.3448 17.931V18.6206C10.3448 20.2911 11.3492 21.7978 12.8912 22.4403L17.3472 24.297C17.5653 24.3878 17.7879 24.4661 18.0133 24.534C16.044 23.0934 14.7331 21.834 13.965 21.0105C13.4062 20.4114 13.1034 19.6208 13.1034 18.8015V11.0149C13.8374 10.933 14.4927 10.5939 14.9812 10.0913C15.3574 10.2534 15.7712 10.3448 16.2068 10.3448C17.1549 10.3448 17.993 9.91063 18.5622 9.24081C18.9819 9.49883 19.4711 9.65512 19.9999 9.65512C20.7081 9.65512 21.3473 9.38046 21.8358 8.94184C22.3712 9.38081 23.0467 9.65512 23.793 9.65512C25.1106 9.65512 26.2282 8.83141 26.6762 7.67236H10.3448Z" fill="#C38762"/>
<path d="M29.6551 8.27577C29.6103 8.27577 29.5684 8.28612 29.5243 8.28896C29.6043 8.06862 29.6551 7.83405 29.6551 7.58612C29.6551 6.44345 28.7288 5.51716 27.5861 5.51716C27.3352 5.51716 27.0977 5.56863 26.8751 5.65044C26.7645 4.03708 25.4346 2.75854 23.793 2.75854C22.3798 2.75854 21.2007 3.70897 20.8257 5.00121C20.5724 4.89061 20.2939 4.82751 19.9999 4.82751C19.2259 4.82751 18.5592 5.25759 18.2044 5.88699C17.7702 5.24776 17.0379 4.82751 16.2069 4.82751C15.2193 4.82751 14.373 5.42216 13.9993 6.27147C13.6198 5.8144 13.0543 5.51716 12.4138 5.51716C11.6451 5.51716 10.9749 5.93664 10.6181 6.55888C10.5707 6.55414 10.5227 6.55164 10.4741 6.55164C9.68849 6.55164 9.05168 7.18845 9.05168 7.97405C9.05168 8.20578 9.10823 8.42388 9.20659 8.61724C8.64599 8.98733 8.27582 9.62267 8.27582 10.3447C8.27582 11.4874 9.20211 12.4137 10.3448 12.4137C11.4874 12.4137 12.4137 11.4874 12.4137 10.3447C12.4137 10.0968 12.363 9.86224 12.283 9.64189C12.3271 9.64474 12.369 9.65508 12.4137 9.65508C13.1878 9.65508 13.8545 9.225 14.2093 8.5956C14.6435 9.23482 15.376 9.65508 16.2068 9.65508C17.1944 9.65508 18.0407 9.06043 18.4145 8.21112C18.794 8.66819 19.3593 8.96543 19.9999 8.96543C20.6864 8.96543 21.2902 8.62733 21.6666 8.11259C22.2226 8.63793 22.9678 8.96543 23.793 8.96543C24.4971 8.96543 25.139 8.72198 25.6597 8.3269C25.9583 9.10241 26.7053 9.65508 27.5861 9.65508C27.631 9.65508 27.6728 9.64474 27.7169 9.64189C27.6369 9.86224 27.5861 10.0968 27.5861 10.3447C27.5861 11.4874 28.5124 12.4137 29.6551 12.4137C30.7978 12.4137 31.724 11.4874 31.724 10.3447C31.724 9.20207 30.7978 8.27577 29.6551 8.27577Z" fill="#623F33"/>
</g>
<defs>
<clipPath id="clip0_436_9014">
<rect width="40" height="40" fill="white"/>
</clipPath>
</defs>
</svg>
