<svg width="13" height="13" viewBox="0 0 13 13" fill="none" xmlns="http://www.w3.org/2000/svg">
<g clip-path="url(#clip0_436_9331)">
<path d="M11.375 2.11255V4.06255H1.625V2.11255H0V12.8375H13V2.11255H11.375ZM4.55 10.8875H2.6V8.93755H4.55V10.8875ZM4.55 7.96255H2.6V6.01255H4.55V7.96255ZM7.475 10.8875H5.525V8.93755H7.475V10.8875ZM7.475 7.96255H5.525V6.01255H7.475V7.96255ZM10.4 10.8875H8.45V8.93755H10.4V10.8875ZM10.4 7.96255H8.45V6.01255H10.4V7.96255Z" fill="#3699FF"/>
<path d="M7.47478 0.162598H5.52478V3.0876H7.47478V0.162598Z" fill="#3699FF"/>
<path d="M4.55022 0.162598H2.60022V3.0876H4.55022V0.162598Z" fill="#3699FF"/>
<path d="M10.4 0.162598H8.44995V3.0876H10.4V0.162598Z" fill="#3699FF"/>
</g>
<defs>
<clipPath id="clip0_436_9331">
<rect width="13" height="13" fill="white"/>
</clipPath>
</defs>
</svg>
