<svg width="17" height="17" viewBox="0 0 17 17" fill="none" xmlns="http://www.w3.org/2000/svg">
<g clip-path="url(#clip0_436_9407)">
<path d="M16.2762 0.0524902H13.9704C13.645 0.0524902 13.3576 0.23252 13.2849 0.557959L10.7991 9.67025H3.45596L1.69028 4.30397H9.50774C9.90242 4.30397 10.2279 3.97853 10.2279 3.58385C10.2279 3.18917 9.90242 2.86373 9.50774 2.86373H0.717428C0.1808 2.86373 -0.0996317 3.38997 0.0319287 3.7985L2.26499 10.6085C2.37232 10.8958 2.65967 11.0759 2.95049 11.0759H11.308C11.6335 11.0759 11.9208 10.8612 12.0282 10.6085L14.514 1.49619H16.2796C16.6743 1.49619 16.9998 1.17075 16.9998 0.776073C16.9998 0.381391 16.6743 0.0524902 16.2762 0.0524902Z" fill="#959CB6"/>
<path d="M9.8296 12.1215C8.49668 12.1215 7.4165 13.2016 7.4165 14.5346C7.4165 15.8675 8.49668 16.9476 9.8296 16.9476C11.1971 16.9476 12.2427 15.8675 12.2427 14.5346C12.2427 13.2016 11.1625 12.1215 9.8296 12.1215ZM9.8296 15.5039C9.28951 15.5039 8.82212 15.0366 8.82212 14.4965C8.82212 13.9564 9.25489 13.489 9.8296 13.489C10.4043 13.489 10.8371 13.9564 10.8371 14.4965C10.8371 15.0366 10.4043 15.5039 9.8296 15.5039Z" fill="#959CB6"/>
<path d="M4.39051 12.1215C3.0576 12.1215 1.97742 13.2016 1.97742 14.5346C1.97742 15.8675 3.0576 16.9476 4.39051 16.9476C5.72343 16.9476 6.80361 15.8675 6.80361 14.5346C6.80361 13.2016 5.72343 12.1215 4.39051 12.1215ZM4.39051 15.5039C3.85042 15.5039 3.38304 15.0366 3.38304 14.4965C3.38304 13.9564 3.8158 13.489 4.39051 13.489C4.9306 13.489 5.39799 13.9564 5.39799 14.4965C5.39799 15.0366 4.96522 15.5039 4.39051 15.5039Z" fill="#959CB6"/>
</g>
<defs>
<clipPath id="clip0_436_9407">
<rect width="17" height="17" fill="white"/>
</clipPath>
</defs>
</svg>
