<svg width="22" height="22" viewBox="0 0 22 22" fill="none" xmlns="http://www.w3.org/2000/svg">
<path opacity="0.3" fill-rule="evenodd" clip-rule="evenodd" d="M3.66666 3.66666L10.6314 2.36077C10.875 2.31509 11.125 2.31509 11.3686 2.36077L18.3333 3.66666V10.4033C18.3333 14.196 16.3795 17.7211 13.1633 19.7313L11.53 20.7521C11.2057 20.9547 10.7943 20.9547 10.47 20.7521L8.83667 19.7313C5.62047 17.7211 3.66666 14.196 3.66666 10.4033L3.66666 3.66666Z" fill="#6993FF"/>
<path fill-rule="evenodd" clip-rule="evenodd" d="M10.2438 13.5208C10.0241 13.5208 9.80452 13.433 9.62882 13.2573L7.87188 11.5003C7.52049 11.149 7.52049 10.6219 7.87188 10.2705C8.22327 9.9191 8.79427 9.9191 9.10174 10.2705L10.2438 11.4125L13.1427 8.51354C13.4941 8.16215 14.0212 8.16215 14.3726 8.51354C14.724 8.86493 14.724 9.39201 14.3726 9.7434L10.8587 13.2573C10.683 13.433 10.4634 13.5208 10.2438 13.5208Z" fill="#6993FF"/>
</svg>
