<svg width="35" height="36" viewBox="0 0 35 36" fill="none" xmlns="http://www.w3.org/2000/svg">
<path opacity="0.3" fill-rule="evenodd" clip-rule="evenodd" d="M18.5263 20.5694L22.8472 14.6924H19.6065V8.81545L13.125 17.6309H16.3658V20.5694H8.75002C7.94461 20.5694 7.29169 19.9116 7.29169 19.1002V4.40772C7.29169 3.59628 7.94461 2.93848 8.75002 2.93848H26.25C27.0554 2.93848 27.7084 3.59628 27.7084 4.40772V19.1002C27.7084 19.9116 27.0554 20.5694 26.25 20.5694H18.5263Z" fill="#1BC5BC"/>
<path fill-rule="evenodd" clip-rule="evenodd" d="M14.2979 16.0357L13.125 17.631H16.3657V23.508L22.8472 14.6925H22.5481L29.4689 9.65677C29.7954 9.41923 30.2512 9.49329 30.487 9.8222C30.5767 9.94739 30.625 10.0979 30.625 10.2523V24.9773C30.625 26.6001 29.3192 27.9157 27.7083 27.9157H7.29167C5.68084 27.9157 4.375 26.6001 4.375 24.9773V10.2523C4.375 9.84659 4.70146 9.51769 5.10417 9.51769C5.25745 9.51769 5.40683 9.56636 5.53109 9.65677L14.2979 16.0357Z" fill="#1BC5BC"/>
</svg>
