<svg width="30" height="30" viewBox="0 0 30 30" fill="none" xmlns="http://www.w3.org/2000/svg">
<path opacity="0.3" d="M7.32143 2.5H17.3078C17.6625 2.5 18.0057 2.62568 18.2765 2.85474L24.4687 8.09228C24.8057 8.37728 25 8.79621 25 9.23754V25.1042C25 27.3423 24.9744 27.5 22.6786 27.5H7.32143C5.02556 27.5 5 27.3423 5 25.1042V4.89583C5 2.65766 5.02556 2.5 7.32143 2.5Z" fill="#3699FF"/>
<path fill-rule="evenodd" clip-rule="evenodd" d="M13.7501 17.5L11.2501 17.5C10.5597 17.5 10.0001 16.9404 10.0001 16.25C10.0001 15.5596 10.5597 15 11.2501 15L13.7501 15L13.7501 12.5C13.7501 11.8096 14.3097 11.25 15.0001 11.25C15.6904 11.25 16.2501 11.8096 16.2501 12.5L16.2501 15H18.7501C19.4404 15 20.0001 15.5596 20.0001 16.25C20.0001 16.9404 19.4404 17.5 18.7501 17.5H16.2501L16.2501 20C16.2501 20.6904 15.6904 21.25 15.0001 21.25C14.3097 21.25 13.7501 20.6904 13.7501 20L13.7501 17.5Z" fill="#3699FF"/>
</svg>
