<svg width="24" height="24" viewBox="0 0 24 24" fill="none" xmlns="http://www.w3.org/2000/svg">
<g clip-path="url(#clip0_436_9482)">
<path d="M20.3116 15.3912C20.4192 15.1401 20.6653 14.977 20.9347 14.976H21.025C22.6654 14.976 24 13.6414 24 12.001C24 10.3606 22.6654 9.02596 21.025 9.02596H20.8584C20.6272 9.02502 20.4154 8.90821 20.2905 8.72014C20.2767 8.65185 20.2556 8.58505 20.2273 8.52093C20.1141 8.26452 20.1667 7.96954 20.3614 7.76821L20.4146 7.71506C20.4161 7.71365 20.4175 7.7122 20.4189 7.71074C20.9805 7.14853 21.2896 6.40125 21.289 5.60658C21.2886 4.81328 20.9797 4.06755 20.4193 3.50627C20.4178 3.50477 20.4164 3.50332 20.4149 3.50182C19.8531 2.94058 19.1065 2.63163 18.3125 2.63163C18.3119 2.63163 18.3113 2.63163 18.3108 2.63163C17.5161 2.63206 16.7692 2.94194 16.208 3.50378L16.1524 3.55938C15.9511 3.75395 15.6562 3.80664 15.3997 3.69349C15.3965 3.69213 15.3933 3.69072 15.3901 3.68936C15.139 3.58174 14.976 3.3356 14.975 3.06626V2.97597C14.975 1.33559 13.6404 0.000976562 11.9999 0.000976562C10.3595 0.000976562 9.02493 1.33559 9.02493 2.97597V3.14261C9.02399 3.3738 8.90718 3.58553 8.71912 3.71041C8.65082 3.72424 8.58403 3.74542 8.5199 3.77369C8.26355 3.88689 7.96852 3.8342 7.76719 3.63958L7.70972 3.58207C7.14783 3.02083 6.40135 2.71188 5.6073 2.71188C5.60673 2.71188 5.60608 2.71188 5.60556 2.71188C4.81089 2.7123 4.06395 3.02219 3.50079 3.586C2.93919 4.14817 2.63014 4.89545 2.63061 5.69012C2.63103 6.48478 2.94092 7.23168 3.50276 7.79287L3.55831 7.84842C3.75293 8.04974 3.80562 8.34468 3.69246 8.60113C3.68417 8.61983 3.67657 8.63877 3.66949 8.65794C3.57274 8.92091 3.33082 9.09603 3.0515 9.10611H2.97495C1.33462 9.10611 0 10.4407 0 12.0811C0 13.7216 1.33462 15.0562 2.97509 15.0561H3.14169C3.41496 15.0572 3.66101 15.2201 3.76863 15.4712C3.76999 15.4745 3.7714 15.4777 3.77276 15.4808C3.88596 15.7372 3.83327 16.0322 3.6386 16.2336L3.58306 16.2891C3.58179 16.2904 3.58053 16.2917 3.57921 16.293C3.01883 16.8549 2.71048 17.6015 2.71091 18.3952C2.71133 19.1898 3.02122 19.9368 3.58343 20.4984C3.58479 20.4998 3.5862 20.5012 3.5876 20.5025C4.74841 21.6593 6.63381 21.6574 7.79189 20.498L7.84749 20.4424C8.04877 20.2478 8.34375 20.195 8.60015 20.3083C8.61881 20.3165 8.63775 20.3241 8.65692 20.3312C8.91993 20.428 9.09501 20.6699 9.10513 20.9492V21.0257C9.10513 22.6662 10.4398 24.0008 12.0801 24.0008C13.7206 24.0008 15.0552 22.6662 15.0552 21.0258V20.8593C15.0563 20.586 15.2193 20.3399 15.4704 20.2323C15.4736 20.2309 15.4768 20.2295 15.4799 20.2282C15.7364 20.115 16.0313 20.1676 16.2327 20.3623L16.2902 20.4197C16.852 20.981 17.5986 21.29 18.3926 21.2899C18.3932 21.2899 18.3938 21.2899 18.3943 21.2899C19.189 21.2895 19.936 20.9796 20.4991 20.4159C21.6584 19.2552 21.6573 17.3678 20.4972 16.2089L20.4416 16.1534C20.247 15.952 20.1943 15.6571 20.3075 15.4006C20.3089 15.3975 20.3103 15.3944 20.3116 15.3912ZM19.0583 17.5122C19.0608 17.5148 19.0633 17.5173 19.0658 17.5198L19.1263 17.5804C19.5304 17.9841 19.5309 18.6414 19.1255 19.0472C18.93 19.243 18.6698 19.3509 18.3931 19.3511C18.3928 19.3511 18.3927 19.3511 18.3925 19.3511C18.1159 19.3511 17.8559 19.2434 17.6591 19.0468L17.5989 18.9866C17.5964 18.9841 17.5939 18.9816 17.5913 18.9791C16.8211 18.2258 15.6873 18.0193 14.7014 18.4524C13.7424 18.8658 13.1203 19.8069 13.1161 20.8554V21.0258C13.1161 21.5971 12.6513 22.0619 12.08 22.0619C11.5088 22.0619 11.044 21.5971 11.044 21.0258V20.9356C11.044 20.9281 11.0439 20.9205 11.0437 20.9129C11.0186 19.8389 10.3568 18.9038 9.35493 18.5223C8.3745 18.1028 7.2525 18.312 6.48854 19.0593C6.48601 19.0618 6.48348 19.0643 6.48095 19.0668L6.42038 19.1274C6.0167 19.5315 5.35938 19.5319 4.95517 19.1282C4.954 19.127 4.95278 19.1259 4.95166 19.1247C4.75708 18.9294 4.64993 18.6701 4.64974 18.3942C4.64955 18.1175 4.75722 17.8573 4.95278 17.6615C4.95391 17.6604 4.95499 17.6592 4.95611 17.6582L5.01414 17.6001C5.01667 17.5976 5.01921 17.595 5.02169 17.5925C5.77492 16.8224 5.9814 15.6886 5.54851 14.7027C5.13517 13.7436 4.19398 13.1215 3.14539 13.1173H2.9749C2.40364 13.1173 1.93888 12.6525 1.93888 12.0812C1.93888 11.5099 2.40369 11.0452 2.9749 11.0451H3.06519C3.07273 11.0451 3.08033 11.045 3.08787 11.0448C4.16201 11.0197 5.09706 10.3579 5.47853 9.35605C5.89797 8.37562 5.68881 7.25372 4.94153 6.48975C4.93905 6.48722 4.93652 6.48469 4.93399 6.48216L4.87347 6.4216C4.67768 6.22599 4.56977 5.96588 4.56963 5.68913C4.56944 5.41243 4.67711 5.15218 4.87427 4.95479C5.06988 4.759 5.32998 4.65109 5.60673 4.65095C5.60697 4.65095 5.60711 4.65095 5.60734 4.65095C5.8839 4.65095 6.14392 4.75857 6.34074 4.95521L6.40093 5.01535C6.40342 5.01788 6.40599 5.02042 6.40853 5.0229C7.13119 5.72977 8.17416 5.95515 9.11479 5.62238C9.20366 5.61099 9.2908 5.58732 9.37359 5.55184C10.3355 5.13957 10.9598 4.19697 10.964 3.1466V2.97612C10.964 2.40485 11.4287 1.94009 12 1.94009C12.5712 1.94009 13.036 2.4049 13.036 2.97616V3.07029C13.0402 4.11498 13.6623 5.05618 14.6214 5.46957C15.6075 5.9026 16.7411 5.69597 17.5112 4.94274C17.5138 4.94026 17.5163 4.93773 17.5189 4.9352L17.5794 4.87468C17.775 4.67889 18.0351 4.57098 18.3118 4.57084C18.3121 4.57084 18.3123 4.57084 18.3125 4.57084C18.5881 4.57084 18.8475 4.67781 19.0429 4.87215C19.044 4.87328 19.0451 4.87435 19.0462 4.87548C19.242 5.07109 19.3499 5.3312 19.3501 5.60794C19.3503 5.88394 19.2432 6.14344 19.0487 6.33905C19.0478 6.33999 19.0468 6.34092 19.0458 6.34191L18.9857 6.4021C18.9831 6.40458 18.9807 6.40711 18.9781 6.40969C18.2713 7.13236 18.0459 8.17537 18.3786 9.11595C18.3901 9.20488 18.4138 9.29202 18.4492 9.3748C18.8615 10.3367 19.8041 10.961 20.8545 10.9652H21.0249C21.5962 10.9652 22.061 11.4299 22.061 12.0012C22.061 12.5724 21.5962 13.0373 21.0249 13.0373H20.9308C19.8861 13.0414 18.945 13.6635 18.5315 14.6226C18.0986 15.6083 18.3051 16.7422 19.0583 17.5122Z" fill="#3699FF"/>
<path d="M12 8.02222C9.80665 8.02222 8.02218 9.80665 8.02218 12C8.02218 14.1934 9.80661 15.9778 12 15.9778C14.1933 15.9778 15.9778 14.1934 15.9778 12C15.9778 9.80665 14.1933 8.02222 12 8.02222ZM12 14.0388C10.8758 14.0388 9.96115 13.1242 9.96115 12C9.96115 10.8758 10.8758 9.96114 12 9.96114C13.1242 9.96114 14.0388 10.8758 14.0388 12C14.0388 13.1242 13.1242 14.0388 12 14.0388Z" fill="#3699FF"/>
</g>
<defs>
<clipPath id="clip0_436_9482">
<rect width="24" height="24" fill="white"/>
</clipPath>
</defs>
</svg>
