<svg width="40" height="40" viewBox="0 0 40 40" fill="none" xmlns="http://www.w3.org/2000/svg">
<path d="M36.5517 13.7931C36.5517 13.7931 33.7069 14.1379 32.4138 9.65517C30.6297 3.47 26.6654 0 20 0C13.3346 0 9.37035 3.47 7.58621 9.65517C6.29311 14.1379 3.44828 13.7931 3.44828 13.7931C3.44828 13.7931 1.89656 17.2414 5.51725 19.3103H4.13794C4.13794 19.3103 4.97639 23.4977 9.19854 24.0669C9.73518 25.2794 11.4139 26.8966 16.5517 26.8966H20H23.4483C28.5861 26.8966 30.2648 25.2793 30.8015 24.0669C35.0236 23.4977 35.8621 19.3103 35.8621 19.3103H34.4828C38.1035 17.2414 36.5517 13.7931 36.5517 13.7931Z" fill="#9D6E48"/>
<path d="M26.8966 13.7931C18.3621 9.48276 18.8793 1.89655 20 0C13.3347 0 9.37035 3.47 7.58621 9.65517C6.29311 14.1379 3.44828 13.7931 3.44828 13.7931C3.44828 13.7931 1.89656 17.2414 5.51725 19.3103H4.13794C4.13794 19.3103 4.97639 23.4977 9.19854 24.0669C9.73518 25.2794 11.4139 26.8966 16.5517 26.8966L26.8966 13.7931Z" fill="#8D5F3D"/>
<path d="M32.7911 37.6577L31.999 31.7174C31.8299 30.4491 30.9725 29.3788 29.7717 28.937L25.081 27.2111C24.5178 27.0233 24.1379 26.4963 24.1379 25.9026V23.6782L27.1087 22.4404C28.6508 21.7979 29.6551 20.2913 29.6551 18.6207V17.9311C30.7978 17.9311 31.7241 17.0048 31.7241 15.8621C31.7241 14.7195 30.7978 13.7932 29.6551 13.7932V12.4139C29.6551 10.5094 28.1113 8.96558 26.2069 8.96558H13.7931C11.8886 8.96558 10.3448 10.5095 10.3448 12.4139V13.7932C9.20213 13.7932 8.27584 14.7195 8.27584 15.8621C8.27584 17.0048 9.20213 17.9311 10.3448 17.9311V18.6207C10.3448 20.2913 11.3492 21.7979 12.8912 22.4404L15.862 23.6782V25.9025C15.862 26.4962 15.4821 27.0232 14.9189 27.211L10.2283 28.9369C9.02748 29.3787 8.17006 30.449 8.00092 31.7173L7.20886 37.6576C7.04351 38.898 8.00834 40.0001 9.25963 40.0001H20H30.7403C31.9916 40.0001 32.9565 38.898 32.7911 37.6577Z" fill="#F6B47B"/>
<path d="M15.8621 23.7069V25.9024C15.8621 26.3932 15.602 26.8379 15.1938 27.0835C20.6898 28.0331 23.8312 24.0834 24.1166 23.7068H15.8621V23.7069Z" fill="#E2A071"/>
<path d="M29.6551 13.7932V12.4139C29.6551 10.5094 28.1112 8.96558 26.2069 8.96558H13.7931C11.8886 8.96558 10.3448 10.5095 10.3448 12.4139V13.7932C9.20211 13.7932 8.27582 14.7195 8.27582 15.8621C8.27582 17.0048 9.20211 17.9311 10.3448 17.9311V18.6207C10.3448 20.2913 11.3492 21.7979 12.8912 22.4404L17.3473 24.2971C18.1878 24.6474 19.0894 24.8276 19.9999 24.8276C20.9104 24.8276 21.8119 24.6474 22.6524 24.2971L27.1087 22.4403C28.6507 21.7979 29.6551 20.2913 29.6551 18.6207V17.9311C30.7978 17.9311 31.7241 17.0048 31.7241 15.8621C31.7241 14.7195 30.7978 13.7932 29.6551 13.7932Z" fill="#FDC88E"/>
<path d="M15.1724 16.5516C14.7931 16.5516 14.4827 16.2413 14.4827 15.862V15.1723C14.4827 14.793 14.7931 14.4827 15.1724 14.4827C15.5517 14.4827 15.862 14.793 15.862 15.1723V15.862C15.862 16.2413 15.5517 16.5516 15.1724 16.5516Z" fill="#623F33"/>
<path d="M20 21.398C18.7739 21.398 17.627 21.0963 16.8535 20.57C16.5386 20.3559 16.4567 19.9268 16.6713 19.612C16.8851 19.2975 17.3145 19.2156 17.6293 19.4298C18.1715 19.7985 19.0578 20.0188 20 20.0188C20.9423 20.0188 21.8285 19.7985 22.3707 19.4298C22.6862 19.215 23.1146 19.2972 23.3287 19.612C23.5432 19.9268 23.4614 20.3559 23.1466 20.57C22.3731 21.0963 21.2261 21.398 20 21.398Z" fill="#E2A071"/>
<path d="M27.917 28.1604L25.4353 32.1309C25.0572 32.7359 24.3942 33.1034 23.6808 33.1034H16.3191C15.6058 33.1034 14.9427 32.7359 14.5646 32.1309L12.0831 28.1604C11.8838 27.8415 11.4658 27.7411 11.1434 27.9346L8.87808 29.2938C8.54731 29.4922 8.4436 29.9235 8.64808 30.2507L11.7241 35.1723H28.2758L31.3519 30.2506C31.5564 29.9234 31.4527 29.4922 31.1219 29.2937L28.8565 27.9345C28.5342 27.7411 28.1162 27.8416 27.917 28.1604Z" fill="#F23F44"/>
<path d="M28.2758 35.1724H11.7241V39.9999H28.2758V35.1724Z" fill="#FF4F4F"/>
<path d="M13.9651 21.0107C13.4063 20.4115 13.1035 19.6209 13.1035 18.8016V11.4859C15.4994 13.1651 18.8138 14.4782 25 14.8276L24.3966 12.7587C24.3966 12.7587 20.107 10.3471 18.0172 8.96558H13.7931C13.5567 8.96558 13.3263 8.9904 13.1034 9.03575V9.03506C13.0503 9.04583 12.9978 9.05808 12.9456 9.07127C12.9408 9.07247 12.9358 9.07333 12.931 9.07454C12.9298 9.07489 12.9287 9.07583 12.9275 9.07618C11.4422 9.46032 10.3448 10.8085 10.3448 12.4139V13.7932C9.20211 13.7932 8.27582 14.7195 8.27582 15.8621C8.27582 17.0048 9.20211 17.9311 10.3448 17.9311V18.6207C10.3448 20.2913 11.3492 21.7979 12.8912 22.4404L17.3472 24.2971C17.5653 24.388 17.7879 24.4663 18.0133 24.5341C16.044 23.0934 14.7331 21.8341 13.9651 21.0107Z" fill="#F6B47B"/>
<path d="M24.8276 16.5516C24.4483 16.5516 24.1379 16.2413 24.1379 15.862V15.1723C24.1379 14.793 24.4483 14.4827 24.8276 14.4827C25.2069 14.4827 25.5173 14.793 25.5173 15.1723V15.862C25.5173 16.2413 25.2069 16.5516 24.8276 16.5516Z" fill="#623F33"/>
<path d="M26.8966 13.793L26.2069 12.4137C26.2069 12.4137 28.3891 13.7904 29.7414 13.7904V8.62061H13.4615C16.0673 11.1155 19.3162 13.793 26.8966 13.793Z" fill="#9D6E48"/>
<path d="M26.8965 13.793C23.9989 12.3296 22.1456 10.4885 21.0041 8.62061H13.4614C16.0673 11.1155 19.3162 13.793 26.8965 13.793Z" fill="#8D5F3D"/>
</svg>
