<svg width="40" height="40" viewBox="0 0 40 40" fill="none" xmlns="http://www.w3.org/2000/svg">
<path d="M36.5518 13.7931C36.5518 13.7931 33.7069 14.1379 32.4138 9.65517C30.6297 3.47 26.6655 0 20 0C13.3346 0 9.37038 3.47 7.58624 9.65517C6.29314 14.1379 3.44831 13.7931 3.44831 13.7931C3.44831 13.7931 1.89659 17.2414 5.51728 19.3103H4.13797C4.13797 19.3103 4.97642 23.4977 9.19857 24.0669C9.73521 25.2794 11.4139 26.8966 16.5518 26.8966H20H23.4483C28.5862 26.8966 30.2649 25.2793 30.8015 24.0669C35.0237 23.4977 35.8621 19.3103 35.8621 19.3103H34.4828C38.1035 17.2414 36.5518 13.7931 36.5518 13.7931Z" fill="#9D6E48"/>
<path d="M26.8966 13.7931C18.3621 9.48276 18.8793 1.89655 20 0C13.3347 0 9.37038 3.47 7.58624 9.65517C6.29314 14.1379 3.44831 13.7931 3.44831 13.7931C3.44831 13.7931 1.89659 17.2414 5.51728 19.3103H4.13797C4.13797 19.3103 4.97642 23.4977 9.19857 24.0669C9.73521 25.2794 11.4139 26.8966 16.5518 26.8966L26.8966 13.7931Z" fill="#8D5F3D"/>
<path d="M32.7911 37.6577L31.9991 31.7174C31.8299 30.4491 30.9725 29.3788 29.7717 28.937L25.081 27.2111C24.5179 27.0233 24.1379 26.4963 24.1379 25.9026V23.6782L27.1087 22.4404C28.6508 21.7979 29.6552 20.2913 29.6552 18.6207V17.9311C30.7979 17.9311 31.7241 17.0048 31.7241 15.8621C31.7241 14.7195 30.7979 13.7932 29.6552 13.7932V12.4139C29.6552 10.5094 28.1113 8.96558 26.2069 8.96558H13.7931C11.8886 8.96558 10.3448 10.5095 10.3448 12.4139V13.7932C9.20216 13.7932 8.27587 14.7195 8.27587 15.8621C8.27587 17.0048 9.20216 17.9311 10.3448 17.9311V18.6207C10.3448 20.2913 11.3492 21.7979 12.8912 22.4404L15.8621 23.6782V25.9025C15.8621 26.4962 15.4822 27.0232 14.919 27.211L10.2283 28.9369C9.02751 29.3787 8.17009 30.449 8.00095 31.7173L7.20889 37.6576C7.04354 38.898 8.00837 40.0001 9.25966 40.0001H20H30.7404C31.9916 40.0001 32.9566 38.898 32.7911 37.6577Z" fill="#F6B47B"/>
<path d="M15.8622 23.7069V25.9024C15.8622 26.3932 15.6021 26.8379 15.1939 27.0835C20.6898 28.0331 23.8312 24.0834 24.1166 23.7068H15.8622V23.7069Z" fill="#E2A071"/>
<path d="M29.6552 13.7932V12.4139C29.6552 10.5094 28.1113 8.96558 26.2069 8.96558H13.7931C11.8886 8.96558 10.3448 10.5095 10.3448 12.4139V13.7932C9.20217 13.7932 8.27588 14.7195 8.27588 15.8621C8.27588 17.0048 9.20217 17.9311 10.3448 17.9311V18.6207C10.3448 20.2913 11.3492 21.7979 12.8912 22.4404L17.3473 24.2971C18.1879 24.6474 19.0894 24.8276 19.9999 24.8276C20.9104 24.8276 21.8119 24.6474 22.6524 24.2971L27.1088 22.4403C28.6508 21.7979 29.6552 20.2913 29.6552 18.6207V17.9311C30.7979 17.9311 31.7242 17.0048 31.7242 15.8621C31.7242 14.7195 30.7979 13.7932 29.6552 13.7932Z" fill="#FDC88E"/>
<path d="M15.1724 16.5518C14.7931 16.5518 14.4828 16.2414 14.4828 15.8621V15.1724C14.4828 14.7931 14.7931 14.4828 15.1724 14.4828C15.5517 14.4828 15.8621 14.7931 15.8621 15.1724V15.8621C15.8621 16.2414 15.5517 16.5518 15.1724 16.5518Z" fill="#623F33"/>
<path d="M20 21.3981C18.7739 21.3981 17.627 21.0964 16.8535 20.5701C16.5386 20.356 16.4567 19.9269 16.6713 19.6121C16.8851 19.2976 17.3145 19.2157 17.6293 19.43C18.1715 19.7987 19.0578 20.0189 20 20.0189C20.9423 20.0189 21.8285 19.7987 22.3707 19.43C22.6862 19.2151 23.1146 19.2973 23.3287 19.6121C23.5432 19.9269 23.4614 20.356 23.1466 20.5701C22.3731 21.0964 21.2261 21.3981 20 21.3981Z" fill="#E2A071"/>
<path d="M27.917 28.1604L25.4354 32.1309C25.0573 32.7359 24.3942 33.1034 23.6809 33.1034H16.3191C15.6058 33.1034 14.9428 32.7359 14.5647 32.1309L12.0831 28.1604C11.8838 27.8415 11.4659 27.7411 11.1435 27.9346L8.87811 29.2938C8.54734 29.4922 8.44363 29.9235 8.64811 30.2507L11.7241 35.1723H28.2759L31.3519 30.2506C31.5564 29.9234 31.4527 29.4922 31.1219 29.2937L28.8566 27.9345C28.5342 27.7411 28.1162 27.8416 27.917 28.1604Z" fill="#F23F44"/>
<path d="M28.2759 35.1724H11.7242V39.9999H28.2759V35.1724Z" fill="#FF4F4F"/>
<path d="M13.9652 21.0107C13.4064 20.4115 13.1036 19.6209 13.1036 18.8016V11.4859C15.4995 13.1651 18.8139 14.4782 25.0001 14.8276L24.3967 12.7587C24.3967 12.7587 20.1071 10.3471 18.0173 8.96558H13.7931C13.5567 8.96558 13.3264 8.9904 13.1035 9.03575V9.03506C13.0504 9.04583 12.9979 9.05808 12.9457 9.07127C12.9409 9.07247 12.9359 9.07333 12.9311 9.07454C12.9298 9.07489 12.9288 9.07583 12.9275 9.07618C11.4423 9.46032 10.3448 10.8085 10.3448 12.4139V13.7932C9.20217 13.7932 8.27588 14.7195 8.27588 15.8621C8.27588 17.0048 9.20217 17.9311 10.3448 17.9311V18.6207C10.3448 20.2913 11.3492 21.7979 12.8912 22.4404L17.3473 24.2971C17.5654 24.388 17.7879 24.4663 18.0134 24.5341C16.0441 23.0934 14.7332 21.8341 13.9652 21.0107Z" fill="#F6B47B"/>
<path d="M24.8276 16.5518C24.4483 16.5518 24.1379 16.2414 24.1379 15.8621V15.1724C24.1379 14.7931 24.4483 14.4828 24.8276 14.4828C25.2069 14.4828 25.5173 14.7931 25.5173 15.1724V15.8621C25.5173 16.2414 25.2069 16.5518 24.8276 16.5518Z" fill="#623F33"/>
<path d="M26.8966 13.7931L26.2069 12.4138C26.2069 12.4138 28.3891 13.7906 29.7414 13.7906V8.62073H13.4615C16.0674 11.1156 19.3163 13.7931 26.8966 13.7931Z" fill="#9D6E48"/>
<path d="M26.8966 13.7931C23.9989 12.3297 22.1456 10.4886 21.0041 8.62073H13.4614C16.0673 11.1156 19.3162 13.7931 26.8966 13.7931Z" fill="#8D5F3D"/>
</svg>
