<svg width="29" height="28" viewBox="0 0 29 28" fill="none" xmlns="http://www.w3.org/2000/svg">
<g clip-path="url(#clip0_436_13220)">
<path d="M23.6768 24.9929L23.5851 24.6786C23.5408 24.5268 23.3929 24.4337 23.2407 24.4531L22.92 22.0478C22.8147 21.2576 22.3246 20.571 21.6116 20.2145L20.5754 19.6964C20.4185 19.6179 20.2385 19.6902 20.1651 19.8417L18.094 19.0796C17.7011 18.9486 17.4362 18.581 17.4362 18.1669V16.6154L19.5083 15.752C20.5839 15.304 21.2844 14.2531 21.2844 13.0879V12.6069C22.0814 12.6069 22.7275 11.9608 22.7275 11.1638C22.7275 10.3667 22.0814 9.72066 21.2844 9.72066V8.75859C21.2844 7.43028 20.2076 5.39136 18.8793 5.39136H10.2207C8.89228 5.39136 7.81549 7.43028 7.81549 8.75859V9.72066C7.01848 9.72066 6.37239 10.3667 6.37239 11.1638C6.37239 11.9608 7.01848 12.6069 7.81549 12.6069V13.0879C7.81549 14.2531 8.51605 15.304 9.59158 15.7521L11.6638 16.6156V18.1669C11.6638 18.5811 11.3988 18.9487 11.0059 19.0796L8.97562 19.8267C8.89884 19.6852 8.7256 19.6199 8.57414 19.6957L7.62927 20.1681C6.82294 20.5713 6.33336 21.2577 6.22802 22.0479L5.90729 24.4532C5.75516 24.4338 5.6073 24.5269 5.56293 24.6787L5.47117 24.993C5.42205 25.1613 5.51867 25.3375 5.68692 25.3866L6.37239 25.5865V27.0379C6.37239 27.5692 6.80315 28 7.33446 28H9.28264H19.8654H21.7655C22.2968 28 22.7275 27.5692 22.7275 27.0379V25.6005L23.461 25.3866C23.6293 25.3375 23.726 25.1612 23.6768 24.9929Z" fill="#FFD7A3"/>
<path d="M17.436 16.5752H11.6636V18.1669C11.6636 18.5092 11.4822 18.8194 11.1974 18.9907C15.2216 19.6859 17.436 16.5752 17.436 16.5752Z" fill="#FDC88E"/>
<path d="M23.3041 24.9295L22.9199 22.0478C22.8146 21.2576 22.3245 20.571 21.6115 20.2145L20.5753 19.6964C20.3998 19.6086 20.1949 19.7091 20.1434 19.8985C19.4765 22.3495 17.236 24.1518 14.5738 24.1518C11.911 24.1518 9.66996 22.3486 9.00373 19.8967C8.9525 19.7082 8.74866 19.6082 8.57405 19.6955L7.62918 20.168C6.82284 20.5711 6.33327 21.2576 6.22793 22.0477L5.83636 24.9842C7.10719 25.4218 9.28255 26.0758 9.28255 26.0758V27.9999H19.8653V26.0758L23.3041 24.9295Z" fill="#8DB9E2"/>
<path d="M9.27068 25.9289C9.24127 25.3569 9.0503 24.8042 8.70534 24.3442L6.44707 21.3332C6.33805 21.5577 6.26145 21.7966 6.2279 22.0479L5.84662 24.9077L9.27068 25.9289Z" fill="#6AA2DE"/>
<path d="M5.47117 24.993C5.42205 25.1613 5.51867 25.3375 5.68692 25.3866L9.28258 26.4355V26.0758C9.28258 25.8486 9.24687 25.626 9.19473 25.4076L5.95641 24.463C5.78817 24.4139 5.61199 24.5105 5.56293 24.6787L5.47117 24.993Z" fill="#4E87BB"/>
<path d="M19.8773 25.9289C19.9067 25.3569 20.0977 24.8042 20.4427 24.3442L22.7009 21.3332C22.8099 21.5577 22.8865 21.7966 22.9201 22.0479L23.3014 24.9077L19.8773 25.9289Z" fill="#6AA2DE"/>
<path d="M23.677 24.993C23.7261 25.1613 23.6295 25.3375 23.4612 25.3866L19.8655 26.4355V26.0758C19.8655 25.8486 19.9012 25.626 19.9533 25.4076L23.1917 24.463C23.3599 24.4139 23.5361 24.5105 23.5851 24.6787L23.677 24.993Z" fill="#4E87BB"/>
<path d="M6.85338 8.75858C5.41028 8.75858 2.52408 9.29974 2.52408 13.5689C2.52408 17.8381 1.56201 23.1896 1.56201 23.1896C1.56201 23.1896 6.37235 22.68 6.37235 16.9361C6.37235 11.5846 7.33441 10.6827 7.33441 10.6827L6.85338 8.75858Z" fill="#9D6E48"/>
<path d="M6.37235 16.9361C6.37235 11.5846 7.33441 10.6827 7.33441 10.6827L6.37235 9.23959C5.81615 9.31475 3.68734 9.32997 3.96718 13.0879C4.2478 16.856 5.6508 20.6641 1.56201 23.1896C1.56201 23.1896 6.37235 22.68 6.37235 16.9361Z" fill="#8D5F3D"/>
<path d="M7.42326 10.2443L6.82479 8.59464C6.73418 8.34492 6.45825 8.21588 6.20853 8.3065C5.95881 8.39711 5.82978 8.67299 5.92039 8.92276L6.51886 10.5725C6.60947 10.8222 6.8854 10.9512 7.13512 10.8606C7.38484 10.7699 7.51387 10.4941 7.42326 10.2443Z" fill="#6AA2DE"/>
<path d="M22.2465 8.75858C23.6896 8.75858 26.5758 9.29974 26.5758 13.5689C26.5758 17.8381 27.5378 23.1896 27.5378 23.1896C27.5378 23.1896 22.7275 22.68 22.7275 16.9361C22.7275 11.5846 21.7654 10.6827 21.7654 10.6827L22.2465 8.75858Z" fill="#9D6E48"/>
<path d="M22.7275 16.9361C22.7275 11.5846 21.7654 10.6827 21.7654 10.6827L22.7275 9.23959C23.2837 9.31475 25.4125 9.32997 25.1327 13.0879C24.8521 16.856 23.4491 20.6641 27.5378 23.1896C27.5379 23.1896 22.7275 22.68 22.7275 16.9361Z" fill="#8D5F3D"/>
<path d="M21.6769 10.2443L22.2753 8.59464C22.3659 8.34492 22.6419 8.21588 22.8916 8.3065C23.1413 8.39711 23.2703 8.67299 23.1797 8.92276L22.5813 10.5725C22.4907 10.8222 22.2147 10.9512 21.965 10.8606C21.7152 10.7699 21.5863 10.4941 21.6769 10.2443Z" fill="#6AA2DE"/>
<path d="M21.2844 9.72066V8.75859C21.2844 7.43028 20.2076 5.39136 18.8792 5.39136H10.2206C8.89227 5.39136 7.81548 7.43028 7.81548 8.75859V9.72042C7.01846 9.72042 6.37238 10.3665 6.37238 11.1635C6.37238 11.9605 7.01846 12.6066 7.81548 12.6066V13.0879C7.81548 14.2531 8.51604 15.304 9.59157 15.7521L12.6997 17.0472C13.286 17.2915 13.9148 17.4172 14.5499 17.4172C15.185 17.4172 15.8137 17.2914 16.4 17.0472L19.5083 15.752C20.5838 15.304 21.2844 14.2531 21.2844 13.0879V12.6069C22.0814 12.6069 22.7275 11.9608 22.7275 11.1638C22.7275 10.3667 22.0814 9.72066 21.2844 9.72066Z" fill="#FFE1B2"/>
<path d="M11.1826 11.6448C10.9181 11.6448 10.7016 11.4284 10.7016 11.1638V10.6828C10.7016 10.4182 10.9181 10.2017 11.1826 10.2017C11.4472 10.2017 11.6637 10.4182 11.6637 10.6828V11.1638C11.6637 11.4284 11.4472 11.6448 11.1826 11.6448Z" fill="#623F33"/>
<path d="M17.9173 11.6448C17.6527 11.6448 17.4362 11.4284 17.4362 11.1638V10.6828C17.4362 10.4182 17.6527 10.2017 17.9173 10.2017C18.1818 10.2017 18.3983 10.4182 18.3983 10.6828V11.1638C18.3983 11.4284 18.1818 11.6448 17.9173 11.6448Z" fill="#623F33"/>
<path d="M14.5499 15.0251C13.6947 15.0251 12.8947 14.8147 12.3552 14.4476C12.1356 14.2982 12.0785 13.999 12.2281 13.7794C12.3772 13.56 12.6767 13.5029 12.8963 13.6523C13.2745 13.9095 13.8927 14.0631 14.5499 14.0631C15.2071 14.0631 15.8253 13.9095 16.2034 13.6523C16.4235 13.5025 16.7223 13.5598 16.8717 13.7794C17.0213 13.999 16.9642 14.2982 16.7446 14.4476C16.2052 14.8147 15.4051 15.0251 14.5499 15.0251Z" fill="#E4B07B"/>
<path d="M14.1319 5.33099C14.0487 7.93104 7.81548 9.72066 7.81548 9.72066C7.01846 9.72066 6.37238 10.3668 6.37238 11.1638C6.37238 11.9608 7.01846 12.6069 7.81548 12.6069V13.0879C7.81548 14.2531 8.51604 15.304 9.59157 15.7521L12.6996 17.0472C12.8518 17.1105 13.007 17.1651 13.1643 17.2125C11.7907 16.2076 10.8764 15.3292 10.3406 14.7549C9.95084 14.337 9.73961 13.7855 9.73961 13.214V10.5256C11.1166 10.045 14.9816 8.46631 15.031 5.8724C15.0347 5.67583 15.0319 5.49587 15.0235 5.33099H14.1319Z" fill="#FFD7A3"/>
<path d="M16.9551 0.100006C15.3917 0.100006 14.5499 0.58104 14.5499 0.58104C14.5499 0.58104 13.7081 0.100006 12.1447 0.100006C10.5814 0.100006 4.6486 3.10977 6.85335 10.0848C6.85335 10.0848 14.5499 8.7185 14.5499 5.39137C14.5499 8.7185 22.2464 10.0848 22.2464 10.0848C24.4512 3.10977 18.5184 0.100006 16.9551 0.100006Z" fill="#9D6E48"/>
<path d="M14.5498 0.58128V0.58104C14.5498 0.58104 13.708 0.100006 12.1446 0.100006C10.5813 0.100006 4.64857 3.10977 6.85327 10.0848C6.85327 10.0848 7.78497 9.91898 8.99928 9.56344C7.6403 3.30898 13.0581 0.58609 14.5498 0.58128Z" fill="#8D5F3D"/>
<path d="M14.5498 27.5189C14.8155 27.5189 15.0308 27.3036 15.0308 27.0379C15.0308 26.7722 14.8155 26.5569 14.5498 26.5569C14.2842 26.5569 14.0688 26.7722 14.0688 27.0379C14.0688 27.3036 14.2842 27.5189 14.5498 27.5189Z" fill="#FF8C51"/>
<path d="M10.7017 27.5189C10.9674 27.5189 11.1828 27.3036 11.1828 27.0379C11.1828 26.7722 10.9674 26.5569 10.7017 26.5569C10.4361 26.5569 10.2207 26.7722 10.2207 27.0379C10.2207 27.3036 10.4361 27.5189 10.7017 27.5189Z" fill="#FF8C51"/>
<path d="M18.3981 27.5189C18.6638 27.5189 18.8792 27.3036 18.8792 27.0379C18.8792 26.7722 18.6638 26.5569 18.3981 26.5569C18.1325 26.5569 17.9171 26.7722 17.9171 27.0379C17.9171 27.3036 18.1325 27.5189 18.3981 27.5189Z" fill="#FF8C51"/>
<path d="M16.4741 27.5189C16.7398 27.5189 16.9552 27.3036 16.9552 27.0379C16.9552 26.7722 16.7398 26.5569 16.4741 26.5569C16.2085 26.5569 15.9931 26.7722 15.9931 27.0379C15.9931 27.3036 16.2085 27.5189 16.4741 27.5189Z" fill="#FFC84A"/>
<path d="M12.6258 27.5189C12.8915 27.5189 13.1068 27.3036 13.1068 27.0379C13.1068 26.7722 12.8915 26.5569 12.6258 26.5569C12.3601 26.5569 12.1448 26.7722 12.1448 27.0379C12.1448 27.3036 12.3601 27.5189 12.6258 27.5189Z" fill="#FFC84A"/>
<path d="M15.5121 26.0759C15.7778 26.0759 15.9931 25.8605 15.9931 25.5948C15.9931 25.3292 15.7778 25.1138 15.5121 25.1138C15.2464 25.1138 15.0311 25.3292 15.0311 25.5948C15.0311 25.8605 15.2464 26.0759 15.5121 26.0759Z" fill="#FFC84A"/>
<path d="M11.6638 26.0759C11.9294 26.0759 12.1448 25.8605 12.1448 25.5948C12.1448 25.3292 11.9294 25.1138 11.6638 25.1138C11.3981 25.1138 11.1827 25.3292 11.1827 25.5948C11.1827 25.8605 11.3981 26.0759 11.6638 26.0759Z" fill="#FFC84A"/>
<path d="M19.3602 26.0759C19.6259 26.0759 19.8412 25.8605 19.8412 25.5948C19.8412 25.3292 19.6259 25.1138 19.3602 25.1138C19.0945 25.1138 18.8792 25.3292 18.8792 25.5948C18.8792 25.8605 19.0945 26.0759 19.3602 26.0759Z" fill="#FFC84A"/>
<path d="M9.73946 26.0759C10.0051 26.0759 10.2205 25.8605 10.2205 25.5948C10.2205 25.3292 10.0051 25.1138 9.73946 25.1138C9.47379 25.1138 9.25842 25.3292 9.25842 25.5948C9.25842 25.8605 9.47379 26.0759 9.73946 26.0759Z" fill="#FF8C51"/>
<path d="M17.4361 26.0759C17.7018 26.0759 17.9171 25.8605 17.9171 25.5948C17.9171 25.3292 17.7018 25.1138 17.4361 25.1138C17.1704 25.1138 16.9551 25.3292 16.9551 25.5948C16.9551 25.8605 17.1704 26.0759 17.4361 26.0759Z" fill="#FF8C51"/>
<path d="M13.5878 26.0759C13.8534 26.0759 14.0688 25.8605 14.0688 25.5948C14.0688 25.3292 13.8534 25.1138 13.5878 25.1138C13.3221 25.1138 13.1068 25.3292 13.1068 25.5948C13.1068 25.8605 13.3221 26.0759 13.5878 26.0759Z" fill="#FF8C51"/>
</g>
<defs>
<clipPath id="clip0_436_13220">
<rect width="27.9" height="27.9" fill="white" transform="translate(0.599976 0.100006)"/>
</clipPath>
</defs>
</svg>
