<svg width="342" height="108" viewBox="0 0 342 108" fill="none" xmlns="http://www.w3.org/2000/svg">
<path d="M49.0426 47.5H0V108H340V27.5L326.947 39.4208C317.733 47.8348 305.707 52.5 293.229 52.5H261.94C249.462 52.5 237.436 47.8348 228.222 39.4207L201.021 14.5793C191.807 6.16518 179.781 1.5 167.303 1.5H138.204C125.726 1.5 113.7 6.16518 104.486 14.5792L82.7599 34.4207C73.5464 42.8348 61.5199 47.5 49.0426 47.5Z" fill="url(#paint0_linear_436_9205)"/>
<path d="M0 47.5H49.0426C61.5199 47.5 73.5464 42.8348 82.7599 34.4207L104.486 14.5792C113.7 6.16518 125.726 1.5 138.204 1.5H167.303C179.781 1.5 191.807 6.16518 201.021 14.5793L228.222 39.4207C237.436 47.8348 249.462 52.5 261.94 52.5H293.229C305.707 52.5 317.733 47.8348 326.947 39.4208L340 27.5" stroke="#F64E60" stroke-width="3"/>
<defs>
<linearGradient id="paint0_linear_436_9205" x1="170" y1="1.5" x2="170" y2="108" gradientUnits="userSpaceOnUse">
<stop stop-color="#FFE2E5"/>
<stop offset="1" stop-color="white" stop-opacity="0"/>
</linearGradient>
</defs>
</svg>
