<svg width="25" height="25" viewBox="0 0 25 25" fill="none" xmlns="http://www.w3.org/2000/svg">
<path d="M11.4689 16.7647C12.0172 17.204 12.797 17.2037 13.3451 16.7641L20.017 11.413L20.246 11.2303C20.9977 10.6306 20.9989 9.4884 20.2485 8.88711L13.3452 3.35571C12.797 2.91648 12.0174 2.91648 11.4693 3.35571L4.56147 8.89069C3.81247 9.49084 3.81198 10.6303 4.56047 11.2311L4.78714 11.413L11.4689 16.7647Z" fill="#6993FF"/>
<path opacity="0.3" fill-rule="evenodd" clip-rule="evenodd" d="M13.3346 19.4704C12.7866 19.9096 12.0071 19.9097 11.459 19.4706L5.5262 14.7187C5.11477 14.3892 4.51293 14.4618 4.19168 14.8797V14.8797C3.87518 15.2915 3.95203 15.8818 4.3634 16.1988L11.4902 21.6904C12.0297 22.1062 12.7815 22.1062 13.3211 21.6906L20.4445 16.2036C20.8594 15.884 20.9367 15.2887 20.6171 14.8738V14.8738C20.2932 14.4532 19.6872 14.3804 19.2729 14.7123L13.3346 19.4704Z" fill="#6993FF"/>
</svg>
