<svg width="17" height="17" viewBox="0 0 17 17" fill="none" xmlns="http://www.w3.org/2000/svg">
<path d="M12.7509 6.375C12.7509 2.8545 9.89655 0 6.37598 0C2.85548 0 0.000976562 2.8545 0.000976562 6.375C0.000976562 9.89551 2.85548 12.7499 6.37598 12.7499C9.89655 12.7499 12.7509 9.89551 12.7509 6.375ZM6.37598 11.1561C3.73944 11.1561 1.59477 9.01158 1.59477 6.37504C1.59477 3.7385 3.73944 1.59383 6.37598 1.59383C9.01245 1.59383 11.1573 3.7385 11.1573 6.37504C11.1573 9.01158 9.01245 11.1561 6.37598 11.1561Z" fill="#959CB6"/>
<path d="M16.5326 14.2795L12.6326 10.3792C12.0515 11.2829 11.2824 12.0516 10.3787 12.6327L14.279 16.5331C14.9017 17.1556 15.9113 17.1556 16.5326 16.5331C17.1553 15.9116 17.1553 14.902 16.5326 14.2795Z" fill="#959CB6"/>
</svg>
