<svg width="24" height="24" viewBox="0 0 24 24" fill="none" xmlns="http://www.w3.org/2000/svg">
<path opacity="0.3" d="M12 4.56205L7.76825 9.64018C7.41468 10.0645 6.78412 10.1218 6.35984 9.76822C5.93556 9.41466 5.87824 8.78409 6.2318 8.35982L11.2318 2.35982C11.6316 1.88006 12.3685 1.88006 12.7682 2.35982L17.7682 8.35982C18.1218 8.78409 18.0645 9.41466 17.6402 9.76822C17.2159 10.1218 16.5854 10.0645 16.2318 9.64018L12 4.56205Z" fill="#6993FF"/>
<path fill-rule="evenodd" clip-rule="evenodd" d="M3.50002 9H20.5C21.0523 9 21.5 9.44772 21.5 10C21.5 10.132 21.4739 10.2627 21.4231 10.3846L17.7692 19.1538C17.3034 20.2718 16.2111 21 15 21H9.00002C7.78891 21 6.69659 20.2718 6.23079 19.1538L2.57694 10.3846C2.36452 9.87481 2.6056 9.28934 3.1154 9.07692C3.23727 9.02614 3.36799 9 3.50002 9ZM12 17C13.1046 17 14 16.1046 14 15C14 13.8954 13.1046 13 12 13C10.8954 13 10 13.8954 10 15C10 16.1046 10.8954 17 12 17Z" fill="#6993FF"/>
</svg>
